<mxfile host="app.diagrams.net" modified="2022-09-12T13:29:53.517Z" agent="5.0 (Windows NT 10.0; Win64; x64) AppleWebKit/537.36 (KHTML, like Gecko) Chrome/105.0.0.0 Safari/537.36" etag="PDq-BRT0abZ4mG_bazRd" version="20.2.5" type="github">
  <diagram id="pa8KoPFgjyJ3geLcBCtL" name="Page-1">
    <mxGraphModel dx="1022" dy="411" grid="1" gridSize="10" guides="1" tooltips="1" connect="1" arrows="1" fold="1" page="1" pageScale="1" pageWidth="827" pageHeight="1169" math="0" shadow="0">
      <root>
        <mxCell id="0" />
        <mxCell id="1" parent="0" />
        <mxCell id="7_t5tHJ2iwU9-qM5MAtW-4" value="" style="ellipse;whiteSpace=wrap;html=1;aspect=fixed;" vertex="1" parent="1">
          <mxGeometry x="590" y="720" width="80" height="80" as="geometry" />
        </mxCell>
        <mxCell id="7_t5tHJ2iwU9-qM5MAtW-5" value="" style="ellipse;whiteSpace=wrap;html=1;aspect=fixed;" vertex="1" parent="1">
          <mxGeometry x="110" y="718.89" width="80" height="80" as="geometry" />
        </mxCell>
        <mxCell id="7_t5tHJ2iwU9-qM5MAtW-6" value="" style="ellipse;whiteSpace=wrap;html=1;aspect=fixed;" vertex="1" parent="1">
          <mxGeometry x="600" y="728.89" width="60" height="60" as="geometry" />
        </mxCell>
        <mxCell id="7_t5tHJ2iwU9-qM5MAtW-7" value="&lt;span style=&quot;margin: 0px; padding: 0px; user-select: text; -webkit-user-drag: none; -webkit-tap-highlight-color: transparent; color: windowtext; text-align: left; background-color: rgb(255, 255, 255); font-size: 16pt; font-family: MathJax_Main, sans-serif; line-height: 37px; font-variant-ligatures: none !important;&quot; lang=&quot;EN-GB&quot; class=&quot;TextRun  BCX0 SCXO40789038&quot; data-contrast=&quot;auto&quot;&gt;q&lt;/span&gt;&lt;span style=&quot;margin: 0px; padding: 0px; user-select: text; -webkit-user-drag: none; -webkit-tap-highlight-color: transparent; color: windowtext; text-align: left; background-color: rgb(255, 255, 255); font-family: MathJax_Main, sans-serif; line-height: 37px; font-variant-ligatures: none !important; font-size: 10px;&quot; lang=&quot;EN-GB&quot; class=&quot;TextRun  BCX0 SCXO40789038&quot; data-contrast=&quot;auto&quot;&gt;2&lt;/span&gt;" style="text;html=1;strokeColor=none;fillColor=none;align=center;verticalAlign=middle;whiteSpace=wrap;rounded=0;" vertex="1" parent="1">
          <mxGeometry x="600" y="743.89" width="60" height="30" as="geometry" />
        </mxCell>
        <mxCell id="7_t5tHJ2iwU9-qM5MAtW-8" value="&lt;span style=&quot;margin: 0px; padding: 0px; user-select: text; -webkit-user-drag: none; -webkit-tap-highlight-color: transparent; color: windowtext; text-align: left; background-color: rgb(255, 255, 255); font-size: 16pt; font-family: MathJax_Main, sans-serif; line-height: 37px; font-variant-ligatures: none !important;&quot; lang=&quot;EN-GB&quot; class=&quot;TextRun  BCX0 SCXO40789038&quot; data-contrast=&quot;auto&quot;&gt;q&lt;/span&gt;&lt;span style=&quot;margin: 0px; padding: 0px; user-select: text; -webkit-user-drag: none; -webkit-tap-highlight-color: transparent; color: windowtext; text-align: left; background-color: rgb(255, 255, 255); font-family: MathJax_Main, sans-serif; line-height: 37px; font-variant-ligatures: none !important; font-size: 10px;&quot; lang=&quot;EN-GB&quot; class=&quot;TextRun  BCX0 SCXO40789038&quot; data-contrast=&quot;auto&quot;&gt;1&lt;/span&gt;" style="text;html=1;strokeColor=none;fillColor=none;align=center;verticalAlign=middle;whiteSpace=wrap;rounded=0;" vertex="1" parent="1">
          <mxGeometry x="120" y="742.33" width="60" height="30" as="geometry" />
        </mxCell>
        <mxCell id="7_t5tHJ2iwU9-qM5MAtW-9" value="" style="endArrow=classic;html=1;rounded=0;fontSize=10;" edge="1" parent="1">
          <mxGeometry width="50" height="50" relative="1" as="geometry">
            <mxPoint x="185.95" y="759" as="sourcePoint" />
            <mxPoint x="345.95" y="759.5" as="targetPoint" />
          </mxGeometry>
        </mxCell>
        <mxCell id="7_t5tHJ2iwU9-qM5MAtW-10" value="" style="endArrow=classic;html=1;rounded=0;fontSize=10;" edge="1" parent="1">
          <mxGeometry width="50" height="50" relative="1" as="geometry">
            <mxPoint x="590" y="757.33" as="sourcePoint" />
            <mxPoint x="440" y="756.83" as="targetPoint" />
          </mxGeometry>
        </mxCell>
        <mxCell id="7_t5tHJ2iwU9-qM5MAtW-17" value="" style="shape=stencil(pVbRbtswDPwavxISKUrkc9f9R4Gmi7EsKdJ0W/++9Ax3oZLSC/bm2HcRjzySGujuZfvwvBkwvZyOh++bX+PjaTvQlwFx3G83x/FkTwPdD3T3dDhuvh0Pr/vH+ffzw4Scnn4cfk7/8HvmcQWhiYXpbX6TBRr/efN1JuzG/TmBICVPqIABoSioP0HDA0qFzA7PIBrgCUQcvkAN8KTAzQsAaQGeF3kLPi0ZuIo3eZxuwRO00uG1fI7PDVRv0JsR1MefE1D+nCBQO0fUJcPXHQHJx28BUYBHyNXhCUGCeFJvuJJDw13iNU4QFB8/C2SK4u/8VnnJ2L/lp8XxX+S/cWwIguoN3VYEKxR0BMHFs9cVM2QvWWhJ2vWeSYA3nUAF2IuWFCaVBMS7usUuLQilI5gRo7libeV9VCtwDQdXV+gad74Rmu8EjrNUGpRu1HF8ggB6DdTiEwTUF45ynFazWtf9cfewDR8vGuP9wRmS/CdhJaQLwopoI8hNaZ3q6tO6UjjbstgNpdgabG7tplJsPlv82YdUVzTY566BVjTYns++p3PYQJWWvfRBaGGLWkOqJ2hcuGnyetEaz24bKujdqhJOPpOIfjurhtvQJHaTL6e4clp6b6wccfaHH4y+1vbw94r4NO528w3z/Ht/pbRX83WU7t8B);fillColor=none;fontSize=10;" vertex="1" parent="1">
          <mxGeometry x="240" y="767.22" width="10" height="8.89" as="geometry" />
        </mxCell>
        <mxCell id="7_t5tHJ2iwU9-qM5MAtW-18" value="" style="ellipse;whiteSpace=wrap;html=1;aspect=fixed;fontSize=10;" vertex="1" parent="1">
          <mxGeometry x="350" y="720" width="80" height="80" as="geometry" />
        </mxCell>
        <mxCell id="7_t5tHJ2iwU9-qM5MAtW-19" value="&lt;div style=&quot;text-align: left;&quot;&gt;&lt;font face=&quot;MathJax_Main, sans-serif&quot;&gt;&lt;span style=&quot;font-size: 21.3333px; font-variant-ligatures: none; background-color: rgb(255, 255, 255);&quot;&gt;r&lt;/span&gt;&lt;/font&gt;&lt;/div&gt;" style="text;html=1;strokeColor=none;fillColor=none;align=center;verticalAlign=middle;whiteSpace=wrap;rounded=0;" vertex="1" parent="1">
          <mxGeometry x="360" y="735" width="60" height="30" as="geometry" />
        </mxCell>
        <mxCell id="7_t5tHJ2iwU9-qM5MAtW-36" value="" style="curved=1;endArrow=classic;html=1;rounded=0;fontSize=10;exitX=0;exitY=1;exitDx=0;exitDy=0;" edge="1" parent="1" source="7_t5tHJ2iwU9-qM5MAtW-18">
          <mxGeometry width="50" height="50" relative="1" as="geometry">
            <mxPoint x="364" y="797.99" as="sourcePoint" />
            <mxPoint x="414" y="790" as="targetPoint" />
            <Array as="points">
              <mxPoint x="362" y="800" />
              <mxPoint x="370" y="820" />
              <mxPoint x="400" y="830" />
              <mxPoint x="430" y="810" />
              <mxPoint x="414" y="790" />
            </Array>
          </mxGeometry>
        </mxCell>
        <mxCell id="7_t5tHJ2iwU9-qM5MAtW-38" value="" style="shape=stencil(fZBdCsMwDINP49fi2ZQdoOvuUWi6mGVJSbO/2y/Bg3Ut5E2R9UUg4G6xw2yAcEkxXM1TxmSBT0Ak3pooKSvgHribQjSXGO5+1Pc8lGRRt/AoP7yUwwaxQITvjXHWuBNfi1Nbze+Btl7A3DD/Acd6wwF3FSvri2TxG2AS53S/9X07WLZ0bO4/);fillColor=none;fontSize=10;" vertex="1" parent="1">
          <mxGeometry x="388.33331298828125" y="845.3333740234375" width="0.66668701171875" height="2.666656494140625" as="geometry" />
        </mxCell>
        <mxCell id="7_t5tHJ2iwU9-qM5MAtW-39" value="" style="shape=stencil(pVbRbtswDPwavxISKUrkc9f9R4Gmi7EsKdJ0W/++9Ax3oZLSC/bm2HcRjzySGujuZfvwvBkwvZyOh++bX+PjaTvQlwFx3G83x/FkTwPdD3T3dDhuvh0Pr/vH+ffzw4Scnn4cfk7/8HvmcQWhiYXpbX6TBRr/efN1JuzG/TmBICVPqIABoSioP0HDA0qFzA7PIBrgCUQcvkAN8KTAzQsAaQGeF3kLPi0ZuIo3eZxuwRO00uG1fI7PDVRv0JsR1MefE1D+nCBQO0fUJcPXHQHJx28BUYBHyNXhCUGCeFJvuJJDw13iNU4QFB8/C2SK4u/8VnnJ2L/lp8XxX+S/cWwIguoN3VYEKxR0BMHFs9cVM2QvWWhJ2vWeSYA3nUAF2IuWFCaVBMS7usUuLQilI5gRo7libeV9VCtwDQdXV+gad74Rmu8EjrNUGpRu1HF8ggB6DdTiEwTUF45ynFazWtf9cfewDR8vGuP9wRmS/CdhJaQLwopoI8hNaZ3q6tO6UjjbstgNpdgabG7tplJsPlv82YdUVzTY566BVjTYns++p3PYQJWWvfRBaGGLWkOqJ2hcuGnyetEaz24bKujdqhJOPpOIfjurhtvQJHaTL6e4clp6b6wccfaHH4y+1vbw94r4NO528w3z/Ht/pbRX83WU7t8B);fillColor=none;fontSize=10;" vertex="1" parent="1">
          <mxGeometry x="370" y="839.11" width="10" height="8.89" as="geometry" />
        </mxCell>
        <mxCell id="7_t5tHJ2iwU9-qM5MAtW-40" value="" style="shape=stencil(lVZdc9owEPw1ft2RdJJO95ym/yMzgeIphQwhTfLvc4yHlpPhiN+M2fV97a000MPr5ullNaTwejzsf6/ex+fjZqAfQ0rjbrM6jEd9GuhxoIf1/rD6ddi/7Z6n3y9PJ+Tp6c/+7+kLHxMvIIQTKYXP7sXPCb4ddx68gtNtOCFnA48VkW7jMyQZvH6B+Ta+gJrFM6KTfkUuBk8Ztd7GMwoZfE5ITv4N1bYnC1gW4Ivfzxm+EsKSfKqAluC5oDp4QbX9bxHi4GMA2wG0CsoOIaLZCTRBcSYcE8SWIBrTGXEkSFtEKAhlUUr/NH9RtDiqjg2payshOjLStcw2AjdwcwgZ3BGKu/cUEKMl6GSKQ6godYn0ckYQS+Cze1zf/YTaEbTRTtE1gdgSCopTA4fzmL4ZgVUIM0KLzr5VBGt4tSE40pCIPNtocdQqBdytdEJ2apDWe/AdD4hhdihoH7JTtfBZOt/Ut6hL25zubJBuZLIR7iy1+hbbCKK+4NTAmnFHqOclvK6+2VmonSbH6+f6FpWXM7ms3puXECiidMdz8I//pIy4JMQVO+6r1of/l5P1uN1Od5vL//vLjL6aLkL0+AU=);fillColor=none;fontSize=10;" vertex="1" parent="1">
          <mxGeometry x="400" y="834.78" width="7.75" height="13.22" as="geometry" />
        </mxCell>
        <mxCell id="7_t5tHJ2iwU9-qM5MAtW-42" value="" style="endArrow=classic;html=1;rounded=0;fontSize=10;" edge="1" parent="1">
          <mxGeometry width="50" height="50" relative="1" as="geometry">
            <mxPoint x="430.00000000000006" y="776.11" as="sourcePoint" />
            <mxPoint x="590" y="776.61" as="targetPoint" />
          </mxGeometry>
        </mxCell>
        <mxCell id="7_t5tHJ2iwU9-qM5MAtW-43" value="" style="shape=stencil(lVZdc9owEPw1ft2RdJJO95ym/yMzgeIphQwhTfLvc4yHlpPhiN+M2fV97a000MPr5ullNaTwejzsf6/ex+fjZqAfQ0rjbrM6jEd9GuhxoIf1/rD6ddi/7Z6n3y9PJ+Tp6c/+7+kLHxMvIIQTKYXP7sXPCb4ddx68gtNtOCFnA48VkW7jMyQZvH6B+Ta+gJrFM6KTfkUuBk8Ztd7GMwoZfE5ITv4N1bYnC1gW4Ivfzxm+EsKSfKqAluC5oDp4QbX9bxHi4GMA2wG0CsoOIaLZCTRBcSYcE8SWIBrTGXEkSFtEKAhlUUr/NH9RtDiqjg2payshOjLStcw2AjdwcwgZ3BGKu/cUEKMl6GSKQ6godYn0ckYQS+Cze1zf/YTaEbTRTtE1gdgSCopTA4fzmL4ZgVUIM0KLzr5VBGt4tSE40pCIPNtocdQqBdytdEJ2apDWe/AdD4hhdihoH7JTtfBZOt/Ut6hL25zubJBuZLIR7iy1+hbbCKK+4NTAmnFHqOclvK6+2VmonSbH6+f6FpWXM7ms3puXECiidMdz8I//pIy4JMQVO+6r1of/l5P1uN1Od5vL//vLjL6aLkL0+AU=);fillColor=none;fontSize=10;" vertex="1" parent="1">
          <mxGeometry x="510" y="786.78" width="7.75" height="13.22" as="geometry" />
        </mxCell>
        <mxCell id="7_t5tHJ2iwU9-qM5MAtW-44" value="" style="shape=stencil(lVZdc9owEPw1ft2RdJJO95ym/yMzgeIphQwhTfLvc4yHlpPhiN+M2fV97a000MPr5ullNaTwejzsf6/ex+fjZqAfQ0rjbrM6jEd9GuhxoIf1/rD6ddi/7Z6n3y9PJ+Tp6c/+7+kLHxMvIIQTKYXP7sXPCb4ddx68gtNtOCFnA48VkW7jMyQZvH6B+Ta+gJrFM6KTfkUuBk8Ztd7GMwoZfE5ITv4N1bYnC1gW4Ivfzxm+EsKSfKqAluC5oDp4QbX9bxHi4GMA2wG0CsoOIaLZCTRBcSYcE8SWIBrTGXEkSFtEKAhlUUr/NH9RtDiqjg2payshOjLStcw2AjdwcwgZ3BGKu/cUEKMl6GSKQ6godYn0ckYQS+Cze1zf/YTaEbTRTtE1gdgSCopTA4fzmL4ZgVUIM0KLzr5VBGt4tSE40pCIPNtocdQqBdytdEJ2apDWe/AdD4hhdihoH7JTtfBZOt/Ut6hL25zubJBuZLIR7iy1+hbbCKK+4NTAmnFHqOclvK6+2VmonSbH6+f6FpWXM7ms3puXECiidMdz8I//pIy4JMQVO+6r1of/l5P1uN1Od5vL//vLjL6aLkL0+AU=);fillColor=none;fontSize=10;" vertex="1" parent="1">
          <mxGeometry x="510" y="735" width="7.75" height="13.22" as="geometry" />
        </mxCell>
        <mxCell id="7_t5tHJ2iwU9-qM5MAtW-45" value="" style="ellipse;whiteSpace=wrap;html=1;aspect=fixed;fontSize=10;" vertex="1" parent="1">
          <mxGeometry x="170" y="1160" width="80" height="80" as="geometry" />
        </mxCell>
        <mxCell id="7_t5tHJ2iwU9-qM5MAtW-46" value="&lt;span style=&quot;margin: 0px; padding: 0px; user-select: text; -webkit-user-drag: none; -webkit-tap-highlight-color: transparent; display: inline-block; font-family: &amp;quot;Segoe UI&amp;quot;, &amp;quot;Segoe UI Web&amp;quot;, Arial, Verdana, sans-serif; text-align: left; background-color: rgb(255, 255, 255); font-size: 11pt; line-height: normal;&quot; class=&quot;MathEquationContainer BlobObject DragDrop SCXW66856480 BCX0&quot;&gt;&lt;span style=&quot;margin: 0px; padding: 0px; user-select: text; -webkit-user-drag: none; -webkit-tap-highlight-color: transparent; display: inline-block; background-color: inherit;&quot; class=&quot;MathSpan SCXW66856480 BCX0&quot;&gt;&lt;div style=&quot;margin: 0px; padding: 0px; user-select: text; -webkit-user-drag: none; -webkit-tap-highlight-color: transparent; text-align: center; width: 17px; position: relative; max-width: none; max-height: none; min-width: 0px; min-height: 0px;&quot; class=&quot;MathJax_Display SCXW66856480 BCX0&quot;&gt;&lt;span style=&quot;margin: 0px; padding: 0px; user-select: text; -webkit-user-drag: none; -webkit-tap-highlight-color: transparent; display: inline-table; line-height: normal; word-spacing: normal; overflow-wrap: normal; float: none; direction: ltr; max-width: none; max-height: none; min-width: 0px; min-height: 0px; border: 0px; position: relative;&quot; role=&quot;presentation&quot; data-mathml=&quot;&lt;math xmlns=&amp;quot;http://www.w3.org/1998/Math/MathML&amp;quot; display=&amp;quot;block&amp;quot;&gt;&lt;msub&gt;&lt;mi&gt;p&lt;/mi&gt;&lt;mi&gt;a&lt;/mi&gt;&lt;/msub&gt;&lt;/math&gt;&quot; tabindex=&quot;0&quot; id=&quot;MathJax-Element-21-Frame&quot; class=&quot;MathJax SCXW66856480 BCX0&quot;&gt;&lt;nobr style=&quot;margin: 0px; padding: 0px; user-select: text; -webkit-user-drag: none; -webkit-tap-highlight-color: transparent; transition: none 0s ease 0s; border: 0px; max-width: none; max-height: none; min-width: 0px; min-height: 0px; vertical-align: 0px; line-height: normal;&quot; class=&quot;SCXW66856480 BCX0&quot; aria-hidden=&quot;true&quot;&gt;&lt;span style=&quot;margin: 0px; padding: 0px; user-select: text; -webkit-user-drag: none; -webkit-tap-highlight-color: transparent; transition: none 0s ease 0s; display: inline; position: static; border: 0px; vertical-align: 0px; line-height: normal; box-sizing: content-box; width: 17px;&quot; id=&quot;MathJax-Span-111&quot; class=&quot;math SCXW66856480 BCX0&quot;&gt;&lt;span style=&quot;margin: 0px; padding: 0px; user-select: text; -webkit-user-drag: none; -webkit-tap-highlight-color: transparent; transition: none 0s ease 0s; display: inline-block; position: relative; border: 0px; vertical-align: 0px; line-height: normal; box-sizing: content-box; width: 17px; height: 0px; font-size: 16.28px;&quot; class=&quot;SCXW66856480 BCX0&quot;&gt;&lt;span style=&quot;margin: 0px; padding: 0px; user-select: text; -webkit-user-drag: none; -webkit-tap-highlight-color: transparent; transition: none 0s ease 0s; display: inline; position: absolute; border: 0px; vertical-align: 0px; line-height: normal; box-sizing: content-box; clip: rect(1.539em, 1000.96em, 2.493em, -999.997em); top: -2.117em; left: 0em; width: 17px;&quot; class=&quot;SCXW66856480 BCX0&quot;&gt;&lt;span style=&quot;margin: 0px; padding: 0px; user-select: text; -webkit-user-drag: none; -webkit-tap-highlight-color: transparent; transition: none 0s ease 0s; display: inline; position: static; border: 0px; vertical-align: 0px; line-height: normal; box-sizing: content-box;&quot; id=&quot;MathJax-Span-112&quot; class=&quot;mrow SCXW66856480 BCX0&quot;&gt;&lt;span style=&quot;margin: 0px; padding: 0px; user-select: text; -webkit-user-drag: none; -webkit-tap-highlight-color: transparent; transition: none 0s ease 0s; display: inline; position: static; border: 0px; vertical-align: 0px; line-height: normal; box-sizing: content-box;&quot; id=&quot;MathJax-Span-113&quot; class=&quot;msub SCXW66856480 BCX0&quot;&gt;&lt;span style=&quot;margin: 0px; padding: 0px; user-select: text; -webkit-user-drag: none; -webkit-tap-highlight-color: transparent; transition: none 0s ease 0s; display: inline-block; position: relative; border: 0px; vertical-align: 0px; line-height: normal; box-sizing: content-box; width: 0.957em; height: 0px;&quot; class=&quot;SCXW66856480 BCX0&quot;&gt;&lt;span style=&quot;margin: 0px; padding: 0px; user-select: text; -webkit-user-drag: none; -webkit-tap-highlight-color: transparent; transition: none 0s ease 0s; display: inline; position: absolute; border: 0px; vertical-align: 0px; line-height: normal; box-sizing: content-box; clip: rect(3.394em, 1000.48em, 4.348em, -999.997em); top: -3.972em; left: 0em;&quot; class=&quot;SCXW66856480 BCX0&quot;&gt;&lt;span style=&quot;margin: 0px; padding: 0px; user-select: text; -webkit-user-drag: none; -webkit-tap-highlight-color: transparent; transition: none 0s ease 0s; display: inline; position: static; border: 0px; vertical-align: 0px; line-height: normal; box-sizing: content-box; font-family: MathJax_Math-italic;&quot; id=&quot;MathJax-Span-114&quot; class=&quot;mi SCXW66856480 BCX0&quot;&gt;p&lt;/span&gt;&lt;span style=&quot;margin: 0px; padding: 0px; user-select: text; -webkit-user-drag: none; -webkit-tap-highlight-color: transparent; transition: none 0s ease 0s; display: inline-block; position: static; border: 0px; vertical-align: 0px; line-height: normal; box-sizing: content-box; width: 0px; height: 3.977em;&quot; class=&quot;SCXW66856480 BCX0&quot;&gt;&lt;/span&gt;&lt;/span&gt;&lt;span style=&quot;margin: 0px; padding: 0px; user-select: text; -webkit-user-drag: none; -webkit-tap-highlight-color: transparent; transition: none 0s ease 0s; display: inline; position: absolute; border: 0px; vertical-align: 0px; line-height: normal; box-sizing: content-box; top: -3.813em; left: 0.48em;&quot; class=&quot;SCXW66856480 BCX0&quot;&gt;&lt;span style=&quot;margin: 0px; padding: 0px; user-select: text; -webkit-user-drag: none; -webkit-tap-highlight-color: transparent; transition: none 0s ease 0s; display: inline; position: static; border: 0px; vertical-align: 0px; line-height: normal; box-sizing: content-box; font-size: 12px; font-family: MathJax_Math-italic;&quot; id=&quot;MathJax-Span-115&quot; class=&quot;mi SCXW66856480 BCX0&quot;&gt;a&lt;/span&gt;&lt;span style=&quot;margin: 0px; padding: 0px; user-select: text; -webkit-user-drag: none; -webkit-tap-highlight-color: transparent; transition: none 0s ease 0s; display: inline-block; position: static; border: 0px; vertical-align: 0px; line-height: normal; box-sizing: content-box; width: 0px; height: 3.977em;&quot; class=&quot;SCXW66856480 BCX0&quot;&gt;&lt;/span&gt;&lt;/span&gt;&lt;/span&gt;&lt;/span&gt;&lt;/span&gt;&lt;span style=&quot;margin: 0px; padding: 0px; user-select: text; -webkit-user-drag: none; -webkit-tap-highlight-color: transparent; transition: none 0s ease 0s; display: inline-block; position: static; border: 0px; vertical-align: 0px; line-height: normal; box-sizing: content-box; width: 0px; height: 2.122em;&quot; class=&quot;SCXW66856480 BCX0&quot;&gt;&lt;/span&gt;&lt;/span&gt;&lt;/span&gt;&lt;span style=&quot;margin: 0px; padding: 0px; user-select: text; -webkit-user-drag: none; -webkit-tap-highlight-color: transparent; transition: none 0s ease 0s; display: inline-block; position: static; border: 0px none; vertical-align: -0.291em; line-height: normal; box-sizing: content-box; overflow: hidden; width: 0px; height: 0.826em;&quot; class=&quot;SCXW66856480 BCX0&quot;&gt;&lt;/span&gt;&lt;/span&gt;&lt;/nobr&gt;&lt;span style=&quot;margin: 0px; padding: 0px; user-select: none; -webkit-user-drag: none; -webkit-tap-highlight-color: transparent; top: 0px; left: 0px; clip: rect(1px, 1px, 1px, 1px); position: static; border: 0px; width: 17px; display: inline; transition: none 0s ease 0s; vertical-align: 0px; line-height: normal; box-sizing: content-box; height: 1px !important; overflow: hidden !important;&quot; role=&quot;presentation&quot; class=&quot;MJX_Assistive_MathML MJX_Assistive_MathML_Block SCXW66856480 BCX0&quot;&gt;&lt;math class=&quot;SCXW66856480 BCX0&quot; display=&quot;block&quot; xmlns=&quot;http://www.w3.org/1998/Math/MathML&quot;&gt;&lt;/math&gt;&lt;br&gt;&lt;/span&gt;&lt;/span&gt;&lt;/div&gt;&lt;/span&gt;&lt;/span&gt;&lt;span style=&quot;margin: 0px; padding: 0px; user-select: text; -webkit-user-drag: none; -webkit-tap-highlight-color: transparent; color: windowtext; text-align: left; background-color: rgb(255, 255, 255); font-size: 11pt; line-height: 19.425px; font-family: Calibri, Calibri_EmbeddedFont, Calibri_MSFontService, sans-serif; font-variant-ligatures: none !important;&quot; class=&quot;TextRun EmptyTextRun SCXW66856480 BCX0&quot; lang=&quot;EN-GB&quot; data-contrast=&quot;auto&quot;&gt;&lt;/span&gt;&lt;span style=&quot;margin: 0px; padding: 0px; user-select: text; -webkit-user-drag: none; -webkit-tap-highlight-color: transparent; display: inline-block; font-family: &amp;quot;Segoe UI&amp;quot;, &amp;quot;Segoe UI Web&amp;quot;, Arial, Verdana, sans-serif; text-align: left; background-color: rgb(255, 255, 255); font-size: 11pt; line-height: normal;&quot; class=&quot;MathEquationContainer BlobObject DragDrop SCXW66856480 BCX0&quot;&gt;&lt;span style=&quot;margin: 0px; padding: 0px; user-select: text; -webkit-user-drag: none; -webkit-tap-highlight-color: transparent; display: inline-block; background-color: inherit;&quot; class=&quot;MathSpan SCXW66856480 BCX0&quot;&gt;&lt;span style=&quot;margin: 0px; padding: 0px; user-select: text; -webkit-user-drag: none; -webkit-tap-highlight-color: transparent; color: inherit;&quot; class=&quot;MathJax_Preview SCXW66856480 BCX0&quot;&gt;&lt;/span&gt;&lt;div style=&quot;margin: 0px; padding: 0px; user-select: text; -webkit-user-drag: none; -webkit-tap-highlight-color: transparent; text-align: center; width: 16px; position: relative; max-width: none; max-height: none; min-width: 0px; min-height: 0px;&quot; class=&quot;MathJax_Display SCXW66856480 BCX0&quot;&gt;&lt;span style=&quot;margin: 0px; padding: 0px; user-select: text; -webkit-user-drag: none; -webkit-tap-highlight-color: transparent; display: inline-table; line-height: normal; word-spacing: normal; overflow-wrap: normal; float: none; direction: ltr; max-width: none; max-height: none; min-width: 0px; min-height: 0px; border: 0px; position: relative;&quot; role=&quot;presentation&quot; data-mathml=&quot;&lt;math xmlns=&amp;quot;http://www.w3.org/1998/Math/MathML&amp;quot; display=&amp;quot;block&amp;quot;&gt;&lt;msub&gt;&lt;mi&gt;p&lt;/mi&gt;&lt;mi&gt;b&lt;/mi&gt;&lt;/msub&gt;&lt;/math&gt;&quot; tabindex=&quot;0&quot; id=&quot;MathJax-Element-20-Frame&quot; class=&quot;MathJax SCXW66856480 BCX0&quot;&gt;&lt;nobr style=&quot;margin: 0px; padding: 0px; user-select: text; -webkit-user-drag: none; -webkit-tap-highlight-color: transparent; transition: none 0s ease 0s; border: 0px; max-width: none; max-height: none; min-width: 0px; min-height: 0px; vertical-align: 0px; line-height: normal;&quot; class=&quot;SCXW66856480 BCX0&quot; aria-hidden=&quot;true&quot;&gt;&lt;span style=&quot;margin: 0px; padding: 0px; user-select: text; -webkit-user-drag: none; -webkit-tap-highlight-color: transparent; transition: none 0s ease 0s; display: inline; position: static; border: 0px; vertical-align: 0px; line-height: normal; box-sizing: content-box; width: 16px;&quot; id=&quot;MathJax-Span-106&quot; class=&quot;math SCXW66856480 BCX0&quot;&gt;&lt;span style=&quot;margin: 0px; padding: 0px; user-select: text; -webkit-user-drag: none; -webkit-tap-highlight-color: transparent; transition: none 0s ease 0s; display: inline-block; position: relative; border: 0px; vertical-align: 0px; line-height: normal; box-sizing: content-box; width: 16px; height: 0px; font-size: 16.28px;&quot; class=&quot;SCXW66856480 BCX0&quot;&gt;&lt;span style=&quot;margin: 0px; padding: 0px; user-select: text; -webkit-user-drag: none; -webkit-tap-highlight-color: transparent; transition: none 0s ease 0s; display: inline; position: absolute; border: 0px; vertical-align: 0px; line-height: normal; box-sizing: content-box; clip: rect(1.539em, 1000.9em, 2.493em, -999.997em); top: -2.117em; left: 0em; width: 16px;&quot; class=&quot;SCXW66856480 BCX0&quot;&gt;&lt;span style=&quot;margin: 0px; padding: 0px; user-select: text; -webkit-user-drag: none; -webkit-tap-highlight-color: transparent; transition: none 0s ease 0s; display: inline; position: static; border: 0px; vertical-align: 0px; line-height: normal; box-sizing: content-box;&quot; id=&quot;MathJax-Span-107&quot; class=&quot;mrow SCXW66856480 BCX0&quot;&gt;&lt;span style=&quot;margin: 0px; padding: 0px; user-select: text; -webkit-user-drag: none; -webkit-tap-highlight-color: transparent; transition: none 0s ease 0s; display: inline; position: static; border: 0px; vertical-align: 0px; line-height: normal; box-sizing: content-box;&quot; id=&quot;MathJax-Span-108&quot; class=&quot;msub SCXW66856480 BCX0&quot;&gt;&lt;span style=&quot;margin: 0px; padding: 0px; user-select: text; -webkit-user-drag: none; -webkit-tap-highlight-color: transparent; transition: none 0s ease 0s; display: inline-block; position: relative; border: 0px; vertical-align: 0px; line-height: normal; box-sizing: content-box; width: 0.904em; height: 0px;&quot; class=&quot;SCXW66856480 BCX0&quot;&gt;&lt;span style=&quot;margin: 0px; padding: 0px; user-select: text; -webkit-user-drag: none; -webkit-tap-highlight-color: transparent; transition: none 0s ease 0s; display: inline; position: absolute; border: 0px; vertical-align: 0px; line-height: normal; box-sizing: content-box; clip: rect(3.394em, 1000.48em, 4.348em, -999.997em); top: -3.972em; left: 0em;&quot; class=&quot;SCXW66856480 BCX0&quot;&gt;&lt;span style=&quot;margin: 0px; padding: 0px; user-select: text; -webkit-user-drag: none; -webkit-tap-highlight-color: transparent; transition: none 0s ease 0s; display: inline; position: static; border: 0px; vertical-align: 0px; line-height: normal; box-sizing: content-box; font-family: MathJax_Math-italic;&quot; id=&quot;MathJax-Span-109&quot; class=&quot;mi SCXW66856480 BCX0&quot;&gt;p&lt;/span&gt;&lt;span style=&quot;margin: 0px; padding: 0px; user-select: text; -webkit-user-drag: none; -webkit-tap-highlight-color: transparent; transition: none 0s ease 0s; display: inline-block; position: static; border: 0px; vertical-align: 0px; line-height: normal; box-sizing: content-box; width: 0px; height: 3.977em;&quot; class=&quot;SCXW66856480 BCX0&quot;&gt;&lt;/span&gt;&lt;/span&gt;&lt;span style=&quot;margin: 0px; padding: 0px; user-select: text; -webkit-user-drag: none; -webkit-tap-highlight-color: transparent; transition: none 0s ease 0s; display: inline; position: absolute; border: 0px; vertical-align: 0px; line-height: normal; box-sizing: content-box; top: -3.813em; left: 0.48em;&quot; class=&quot;SCXW66856480 BCX0&quot;&gt;&lt;span style=&quot;margin: 0px; padding: 0px; user-select: text; -webkit-user-drag: none; -webkit-tap-highlight-color: transparent; transition: none 0s ease 0s; display: inline; position: static; border: 0px; vertical-align: 0px; line-height: normal; box-sizing: content-box; font-size: 12px; font-family: MathJax_Math-italic;&quot; id=&quot;MathJax-Span-110&quot; class=&quot;mi SCXW66856480 BCX0&quot;&gt;b&lt;/span&gt;&lt;span style=&quot;margin: 0px; padding: 0px; user-select: text; -webkit-user-drag: none; -webkit-tap-highlight-color: transparent; transition: none 0s ease 0s; display: inline-block; position: static; border: 0px; vertical-align: 0px; line-height: normal; box-sizing: content-box; width: 0px; height: 3.977em;&quot; class=&quot;SCXW66856480 BCX0&quot;&gt;&lt;/span&gt;&lt;/span&gt;&lt;/span&gt;&lt;/span&gt;&lt;/span&gt;&lt;span style=&quot;margin: 0px; padding: 0px; user-select: text; -webkit-user-drag: none; -webkit-tap-highlight-color: transparent; transition: none 0s ease 0s; display: inline-block; position: static; border: 0px; vertical-align: 0px; line-height: normal; box-sizing: content-box; width: 0px; height: 2.122em;&quot; class=&quot;SCXW66856480 BCX0&quot;&gt;&lt;/span&gt;&lt;/span&gt;&lt;/span&gt;&lt;span style=&quot;margin: 0px; padding: 0px; user-select: text; -webkit-user-drag: none; -webkit-tap-highlight-color: transparent; transition: none 0s ease 0s; display: inline-block; position: static; border: 0px none; vertical-align: -0.291em; line-height: normal; box-sizing: content-box; overflow: hidden; width: 0px; height: 0.826em;&quot; class=&quot;SCXW66856480 BCX0&quot;&gt;&lt;/span&gt;&lt;/span&gt;&lt;/nobr&gt;&lt;span style=&quot;margin: 0px; padding: 0px; user-select: none; -webkit-user-drag: none; -webkit-tap-highlight-color: transparent; top: 0px; left: 0px; clip: rect(1px, 1px, 1px, 1px); position: static; border: 0px; width: 16px; display: inline; transition: none 0s ease 0s; vertical-align: 0px; line-height: normal; box-sizing: content-box; height: 1px !important; overflow: hidden !important;&quot; role=&quot;presentation&quot; class=&quot;MJX_Assistive_MathML MJX_Assistive_MathML_Block SCXW66856480 BCX0&quot;&gt;&lt;math class=&quot;SCXW66856480 BCX0&quot; display=&quot;block&quot; xmlns=&quot;http://www.w3.org/1998/Math/MathML&quot;&gt;&lt;/math&gt;&lt;br&gt;&lt;/span&gt;&lt;/span&gt;&lt;/div&gt;&lt;/span&gt;&lt;/span&gt;&lt;span style=&quot;margin: 0px; padding: 0px; user-select: text; -webkit-user-drag: none; -webkit-tap-highlight-color: transparent; color: windowtext; text-align: left; background-color: rgb(255, 255, 255); font-size: 11pt; line-height: 19.425px; font-family: Calibri, Calibri_EmbeddedFont, Calibri_MSFontService, sans-serif; font-variant-ligatures: none !important;&quot; class=&quot;TextRun EmptyTextRun SCXW66856480 BCX0&quot; lang=&quot;EN-GB&quot; data-contrast=&quot;auto&quot;&gt;&lt;/span&gt;&lt;span style=&quot;margin: 0px; padding: 0px; user-select: text; -webkit-user-drag: none; -webkit-tap-highlight-color: transparent; color: windowtext; text-align: left; background-color: rgb(255, 255, 255); font-size: 11pt; line-height: 19.425px; font-family: Calibri, Calibri_EmbeddedFont, Calibri_MSFontService, sans-serif;&quot; data-ccp-props=&quot;{}&quot; class=&quot;EOP SCXW66856480 BCX0&quot;&gt;&amp;nbsp;&lt;/span&gt;" style="ellipse;whiteSpace=wrap;html=1;aspect=fixed;fontSize=10;" vertex="1" parent="1">
          <mxGeometry x="430" y="1160" width="80" height="80" as="geometry" />
        </mxCell>
        <mxCell id="7_t5tHJ2iwU9-qM5MAtW-47" value="&lt;br&gt;&lt;span style=&quot;margin: 0px; padding: 0px; user-select: text; -webkit-user-drag: none; -webkit-tap-highlight-color: transparent; display: inline-block; text-indent: 0px; color: rgb(0, 0, 0); font-family: &amp;quot;Segoe UI&amp;quot;, &amp;quot;Segoe UI Web&amp;quot;, Arial, Verdana, sans-serif; font-style: normal; font-variant-ligatures: normal; font-variant-caps: normal; font-weight: 400; letter-spacing: normal; orphans: 2; text-align: left; text-transform: none; widows: 2; word-spacing: 0px; -webkit-text-stroke-width: 0px; background-color: rgb(255, 255, 255); text-decoration-thickness: initial; text-decoration-style: initial; text-decoration-color: initial; font-size: 11pt; line-height: normal;&quot; class=&quot;MathEquationContainer BlobObject DragDrop SCXW84914525 BCX0&quot;&gt;&lt;span style=&quot;margin: 0px; padding: 0px; user-select: text; -webkit-user-drag: none; -webkit-tap-highlight-color: transparent; display: inline-block; background-color: inherit;&quot; class=&quot;MathSpan SCXW84914525 BCX0&quot;&gt;&lt;div style=&quot;margin: 0px; padding: 0px; user-select: text; -webkit-user-drag: none; -webkit-tap-highlight-color: transparent; text-align: center; width: 18px; position: relative; text-indent: 0px; max-width: none; max-height: none; min-width: 0px; min-height: 0px; display: block !important;&quot; class=&quot;MathJax_Display SCXW84914525 BCX0&quot;&gt;&lt;span style=&quot;margin: 0px; padding: 0px; user-select: text; -webkit-user-drag: none; -webkit-tap-highlight-color: transparent; display: inline-table; font-style: normal; font-weight: normal; line-height: normal; font-size: 14.6667px; text-indent: 0px; text-align: center; text-transform: none; letter-spacing: normal; word-spacing: normal; overflow-wrap: normal; float: none; direction: ltr; max-width: none; max-height: none; min-width: 0px; min-height: 0px; border: 0px; position: relative;&quot; role=&quot;presentation&quot; data-mathml=&quot;&lt;math xmlns=&amp;quot;http://www.w3.org/1998/Math/MathML&amp;quot; display=&amp;quot;block&amp;quot;&gt;&lt;msub&gt;&lt;mi&gt;n&lt;/mi&gt;&lt;mi&gt;a&lt;/mi&gt;&lt;/msub&gt;&lt;/math&gt;&quot; tabindex=&quot;0&quot; id=&quot;MathJax-Element-22-Frame&quot; class=&quot;MathJax SCXW84914525 BCX0&quot;&gt;&lt;nobr style=&quot;margin: 0px; padding: 0px; user-select: text; -webkit-user-drag: none; -webkit-tap-highlight-color: transparent; transition: none 0s ease 0s; border: 0px; max-width: none; max-height: none; min-width: 0px; min-height: 0px; vertical-align: 0px; line-height: normal; text-decoration: none;&quot; class=&quot;SCXW84914525 BCX0&quot; aria-hidden=&quot;true&quot;&gt;&lt;span style=&quot;margin: 0px; padding: 0px; user-select: text; -webkit-user-drag: none; -webkit-tap-highlight-color: transparent; transition: none 0s ease 0s; display: inline; position: static; border: 0px; vertical-align: 0px; line-height: normal; text-decoration: none; box-sizing: content-box; width: 18px;&quot; id=&quot;MathJax-Span-116&quot; class=&quot;math SCXW84914525 BCX0&quot;&gt;&lt;span style=&quot;margin: 0px; padding: 0px; user-select: text; -webkit-user-drag: none; -webkit-tap-highlight-color: transparent; transition: none 0s ease 0s; display: inline-block; position: relative; border: 0px; vertical-align: 0px; line-height: normal; text-decoration: none; box-sizing: content-box; width: 18px; height: 0px; font-size: 16.28px;&quot; class=&quot;SCXW84914525 BCX0&quot;&gt;&lt;span style=&quot;margin: 0px; padding: 0px; user-select: text; -webkit-user-drag: none; -webkit-tap-highlight-color: transparent; transition: none 0s ease 0s; display: inline; position: absolute; border: 0px; vertical-align: 0px; line-height: normal; text-decoration: none; box-sizing: content-box; clip: rect(1.539em, 1001.06em, 2.44em, -999.997em); top: -2.117em; left: 0em; width: 18px;&quot; class=&quot;SCXW84914525 BCX0&quot;&gt;&lt;span style=&quot;margin: 0px; padding: 0px; user-select: text; -webkit-user-drag: none; -webkit-tap-highlight-color: transparent; transition: none 0s ease 0s; display: inline; position: static; border: 0px; vertical-align: 0px; line-height: normal; text-decoration: none; box-sizing: content-box;&quot; id=&quot;MathJax-Span-117&quot; class=&quot;mrow SCXW84914525 BCX0&quot;&gt;&lt;span style=&quot;margin: 0px; padding: 0px; user-select: text; -webkit-user-drag: none; -webkit-tap-highlight-color: transparent; transition: none 0s ease 0s; display: inline; position: static; border: 0px; vertical-align: 0px; line-height: normal; text-decoration: none; box-sizing: content-box;&quot; id=&quot;MathJax-Span-118&quot; class=&quot;msub SCXW84914525 BCX0&quot;&gt;&lt;span style=&quot;margin: 0px; padding: 0px; user-select: text; -webkit-user-drag: none; -webkit-tap-highlight-color: transparent; transition: none 0s ease 0s; display: inline-block; position: relative; border: 0px; vertical-align: 0px; line-height: normal; text-decoration: none; box-sizing: content-box; width: 1.063em; height: 0px;&quot; class=&quot;SCXW84914525 BCX0&quot;&gt;&lt;span style=&quot;margin: 0px; padding: 0px; user-select: text; -webkit-user-drag: none; -webkit-tap-highlight-color: transparent; transition: none 0s ease 0s; display: inline; position: absolute; border: 0px; vertical-align: 0px; line-height: normal; text-decoration: none; box-sizing: content-box; clip: rect(3.394em, 1000.59em, 4.136em, -999.997em); top: -3.972em; left: 0em;&quot; class=&quot;SCXW84914525 BCX0&quot;&gt;&lt;span style=&quot;margin: 0px; padding: 0px; user-select: text; -webkit-user-drag: none; -webkit-tap-highlight-color: transparent; transition: none 0s ease 0s; display: inline; position: static; border: 0px; vertical-align: 0px; line-height: normal; text-decoration: none; box-sizing: content-box; font-family: MathJax_Math-italic;&quot; id=&quot;MathJax-Span-119&quot; class=&quot;mi SCXW84914525 BCX0&quot;&gt;n&lt;/span&gt;&lt;span style=&quot;margin: 0px; padding: 0px; user-select: text; -webkit-user-drag: none; -webkit-tap-highlight-color: transparent; transition: none 0s ease 0s; display: inline-block; position: static; border: 0px; vertical-align: 0px; line-height: normal; text-decoration: none; box-sizing: content-box; width: 0px; height: 3.977em;&quot; class=&quot;SCXW84914525 BCX0&quot;&gt;&lt;/span&gt;&lt;/span&gt;&lt;span style=&quot;margin: 0px; padding: 0px; user-select: text; -webkit-user-drag: none; -webkit-tap-highlight-color: transparent; transition: none 0s ease 0s; display: inline; position: absolute; border: 0px; vertical-align: 0px; line-height: normal; text-decoration: none; box-sizing: content-box; top: -3.813em; left: 0.586em;&quot; class=&quot;SCXW84914525 BCX0&quot;&gt;&lt;span style=&quot;margin: 0px; padding: 0px; user-select: text; -webkit-user-drag: none; -webkit-tap-highlight-color: transparent; transition: none 0s ease 0s; display: inline; position: static; border: 0px; vertical-align: 0px; line-height: normal; text-decoration: none; box-sizing: content-box; font-size: 12px; font-family: MathJax_Math-italic;&quot; id=&quot;MathJax-Span-120&quot; class=&quot;mi SCXW84914525 BCX0&quot;&gt;a&lt;/span&gt;&lt;span style=&quot;margin: 0px; padding: 0px; user-select: text; -webkit-user-drag: none; -webkit-tap-highlight-color: transparent; transition: none 0s ease 0s; display: inline-block; position: static; border: 0px; vertical-align: 0px; line-height: normal; text-decoration: none; box-sizing: content-box; width: 0px; height: 3.977em;&quot; class=&quot;SCXW84914525 BCX0&quot;&gt;&lt;/span&gt;&lt;/span&gt;&lt;/span&gt;&lt;/span&gt;&lt;/span&gt;&lt;span style=&quot;margin: 0px; padding: 0px; user-select: text; -webkit-user-drag: none; -webkit-tap-highlight-color: transparent; transition: none 0s ease 0s; display: inline-block; position: static; border: 0px; vertical-align: 0px; line-height: normal; text-decoration: none; box-sizing: content-box; width: 0px; height: 2.122em;&quot; class=&quot;SCXW84914525 BCX0&quot;&gt;&lt;/span&gt;&lt;/span&gt;&lt;/span&gt;&lt;span style=&quot;margin: 0px; padding: 0px; user-select: text; -webkit-user-drag: none; -webkit-tap-highlight-color: transparent; transition: none 0s ease 0s; display: inline-block; position: static; border: 0px none; vertical-align: -0.232em; line-height: normal; text-decoration: none; box-sizing: content-box; overflow: hidden; width: 0px; height: 0.768em;&quot; class=&quot;SCXW84914525 BCX0&quot;&gt;&lt;/span&gt;&lt;/span&gt;&lt;/nobr&gt;&lt;span style=&quot;margin: 0px; padding: 0px; user-select: none; -webkit-user-drag: none; -webkit-tap-highlight-color: transparent; top: 0px; left: 0px; clip: rect(1px, 1px, 1px, 1px); position: static; border: 0px; width: 18px; display: inline; transition: none 0s ease 0s; vertical-align: 0px; line-height: normal; text-decoration: none; box-sizing: content-box; height: 1px !important; overflow: hidden !important;&quot; role=&quot;presentation&quot; class=&quot;MJX_Assistive_MathML MJX_Assistive_MathML_Block SCXW84914525 BCX0&quot;&gt;&lt;math class=&quot;SCXW84914525 BCX0&quot; display=&quot;block&quot; xmlns=&quot;http://www.w3.org/1998/Math/MathML&quot;&gt;&lt;/math&gt;&lt;br&gt;&lt;/span&gt;&lt;/span&gt;&lt;/div&gt;&lt;/span&gt;&lt;/span&gt;&lt;span style=&quot;margin: 0px; padding: 0px; user-select: text; -webkit-user-drag: none; -webkit-tap-highlight-color: transparent; color: windowtext; font-style: normal; font-variant-caps: normal; font-weight: 400; letter-spacing: normal; orphans: 2; text-align: left; text-indent: 0px; text-transform: none; widows: 2; word-spacing: 0px; -webkit-text-stroke-width: 0px; background-color: rgb(255, 255, 255); text-decoration-thickness: initial; text-decoration-style: initial; text-decoration-color: initial; font-size: 11pt; line-height: 19.425px; font-family: Calibri, Calibri_EmbeddedFont, Calibri_MSFontService, sans-serif; font-variant-ligatures: none !important;&quot; class=&quot;TextRun EmptyTextRun SCXW84914525 BCX0&quot; lang=&quot;EN-GB&quot; data-contrast=&quot;auto&quot;&gt;&lt;/span&gt;&lt;span style=&quot;margin: 0px; padding: 0px; user-select: text; -webkit-user-drag: none; -webkit-tap-highlight-color: transparent; display: inline-block; text-indent: 0px; color: rgb(0, 0, 0); font-family: &amp;quot;Segoe UI&amp;quot;, &amp;quot;Segoe UI Web&amp;quot;, Arial, Verdana, sans-serif; font-style: normal; font-variant-ligatures: normal; font-variant-caps: normal; font-weight: 400; letter-spacing: normal; orphans: 2; text-align: left; text-transform: none; widows: 2; word-spacing: 0px; -webkit-text-stroke-width: 0px; background-color: rgb(255, 255, 255); text-decoration-thickness: initial; text-decoration-style: initial; text-decoration-color: initial; font-size: 11pt; line-height: normal;&quot; class=&quot;MathEquationContainer BlobObject DragDrop SCXW84914525 BCX0&quot;&gt;&lt;span style=&quot;margin: 0px; padding: 0px; user-select: text; -webkit-user-drag: none; -webkit-tap-highlight-color: transparent; display: inline-block; background-color: inherit;&quot; class=&quot;MathSpan SCXW84914525 BCX0&quot;&gt;&lt;span style=&quot;margin: 0px; padding: 0px; user-select: text; -webkit-user-drag: none; -webkit-tap-highlight-color: transparent; color: inherit;&quot; class=&quot;MathJax_Preview SCXW84914525 BCX0&quot;&gt;&lt;/span&gt;&lt;div style=&quot;margin: 0px; padding: 0px; user-select: text; -webkit-user-drag: none; -webkit-tap-highlight-color: transparent; text-align: center; width: 16px; position: relative; text-indent: 0px; max-width: none; max-height: none; min-width: 0px; min-height: 0px; display: block !important;&quot; class=&quot;MathJax_Display SCXW84914525 BCX0&quot;&gt;&lt;span style=&quot;margin: 0px; padding: 0px; user-select: text; -webkit-user-drag: none; -webkit-tap-highlight-color: transparent; display: inline-table; font-style: normal; font-weight: normal; line-height: normal; font-size: 14.6667px; text-indent: 0px; text-align: center; text-transform: none; letter-spacing: normal; word-spacing: normal; overflow-wrap: normal; float: none; direction: ltr; max-width: none; max-height: none; min-width: 0px; min-height: 0px; border: 0px; position: relative;&quot; role=&quot;presentation&quot; data-mathml=&quot;&lt;math xmlns=&amp;quot;http://www.w3.org/1998/Math/MathML&amp;quot; display=&amp;quot;block&amp;quot;&gt;&lt;msub&gt;&lt;mi&gt;p&lt;/mi&gt;&lt;mi&gt;b&lt;/mi&gt;&lt;/msub&gt;&lt;/math&gt;&quot; tabindex=&quot;0&quot; id=&quot;MathJax-Element-23-Frame&quot; class=&quot;MathJax SCXW84914525 BCX0&quot;&gt;&lt;nobr style=&quot;margin: 0px; padding: 0px; user-select: text; -webkit-user-drag: none; -webkit-tap-highlight-color: transparent; transition: none 0s ease 0s; border: 0px; max-width: none; max-height: none; min-width: 0px; min-height: 0px; vertical-align: 0px; line-height: normal; text-decoration: none;&quot; class=&quot;SCXW84914525 BCX0&quot; aria-hidden=&quot;true&quot;&gt;&lt;span style=&quot;margin: 0px; padding: 0px; user-select: text; -webkit-user-drag: none; -webkit-tap-highlight-color: transparent; transition: none 0s ease 0s; display: inline; position: static; border: 0px; vertical-align: 0px; line-height: normal; text-decoration: none; box-sizing: content-box; width: 16px;&quot; id=&quot;MathJax-Span-121&quot; class=&quot;math SCXW84914525 BCX0&quot;&gt;&lt;span style=&quot;margin: 0px; padding: 0px; user-select: text; -webkit-user-drag: none; -webkit-tap-highlight-color: transparent; transition: none 0s ease 0s; display: inline-block; position: relative; border: 0px; vertical-align: 0px; line-height: normal; text-decoration: none; box-sizing: content-box; width: 16px; height: 0px; font-size: 16.28px;&quot; class=&quot;SCXW84914525 BCX0&quot;&gt;&lt;span style=&quot;margin: 0px; padding: 0px; user-select: text; -webkit-user-drag: none; -webkit-tap-highlight-color: transparent; transition: none 0s ease 0s; display: inline; position: absolute; border: 0px; vertical-align: 0px; line-height: normal; text-decoration: none; box-sizing: content-box; clip: rect(1.539em, 1000.9em, 2.493em, -999.997em); top: -2.117em; left: 0em; width: 16px;&quot; class=&quot;SCXW84914525 BCX0&quot;&gt;&lt;span style=&quot;margin: 0px; padding: 0px; user-select: text; -webkit-user-drag: none; -webkit-tap-highlight-color: transparent; transition: none 0s ease 0s; display: inline; position: static; border: 0px; vertical-align: 0px; line-height: normal; text-decoration: none; box-sizing: content-box;&quot; id=&quot;MathJax-Span-122&quot; class=&quot;mrow SCXW84914525 BCX0&quot;&gt;&lt;span style=&quot;margin: 0px; padding: 0px; user-select: text; -webkit-user-drag: none; -webkit-tap-highlight-color: transparent; transition: none 0s ease 0s; display: inline; position: static; border: 0px; vertical-align: 0px; line-height: normal; text-decoration: none; box-sizing: content-box;&quot; id=&quot;MathJax-Span-123&quot; class=&quot;msub SCXW84914525 BCX0&quot;&gt;&lt;span style=&quot;margin: 0px; padding: 0px; user-select: text; -webkit-user-drag: none; -webkit-tap-highlight-color: transparent; transition: none 0s ease 0s; display: inline-block; position: relative; border: 0px; vertical-align: 0px; line-height: normal; text-decoration: none; box-sizing: content-box; width: 0.904em; height: 0px;&quot; class=&quot;SCXW84914525 BCX0&quot;&gt;&lt;span style=&quot;margin: 0px; padding: 0px; user-select: text; -webkit-user-drag: none; -webkit-tap-highlight-color: transparent; transition: none 0s ease 0s; display: inline; position: absolute; border: 0px; vertical-align: 0px; line-height: normal; text-decoration: none; box-sizing: content-box; clip: rect(3.394em, 1000.48em, 4.348em, -999.997em); top: -3.972em; left: 0em;&quot; class=&quot;SCXW84914525 BCX0&quot;&gt;&lt;span style=&quot;margin: 0px; padding: 0px; user-select: text; -webkit-user-drag: none; -webkit-tap-highlight-color: transparent; transition: none 0s ease 0s; display: inline; position: static; border: 0px; vertical-align: 0px; line-height: normal; text-decoration: none; box-sizing: content-box; font-family: MathJax_Math-italic;&quot; id=&quot;MathJax-Span-124&quot; class=&quot;mi SCXW84914525 BCX0&quot;&gt;p&lt;/span&gt;&lt;span style=&quot;margin: 0px; padding: 0px; user-select: text; -webkit-user-drag: none; -webkit-tap-highlight-color: transparent; transition: none 0s ease 0s; display: inline-block; position: static; border: 0px; vertical-align: 0px; line-height: normal; text-decoration: none; box-sizing: content-box; width: 0px; height: 3.977em;&quot; class=&quot;SCXW84914525 BCX0&quot;&gt;&lt;/span&gt;&lt;/span&gt;&lt;span style=&quot;margin: 0px; padding: 0px; user-select: text; -webkit-user-drag: none; -webkit-tap-highlight-color: transparent; transition: none 0s ease 0s; display: inline; position: absolute; border: 0px; vertical-align: 0px; line-height: normal; text-decoration: none; box-sizing: content-box; top: -3.813em; left: 0.48em;&quot; class=&quot;SCXW84914525 BCX0&quot;&gt;&lt;span style=&quot;margin: 0px; padding: 0px; user-select: text; -webkit-user-drag: none; -webkit-tap-highlight-color: transparent; transition: none 0s ease 0s; display: inline; position: static; border: 0px; vertical-align: 0px; line-height: normal; text-decoration: none; box-sizing: content-box; font-size: 12px; font-family: MathJax_Math-italic;&quot; id=&quot;MathJax-Span-125&quot; class=&quot;mi SCXW84914525 BCX0&quot;&gt;b&lt;/span&gt;&lt;span style=&quot;margin: 0px; padding: 0px; user-select: text; -webkit-user-drag: none; -webkit-tap-highlight-color: transparent; transition: none 0s ease 0s; display: inline-block; position: static; border: 0px; vertical-align: 0px; line-height: normal; text-decoration: none; box-sizing: content-box; width: 0px; height: 3.977em;&quot; class=&quot;SCXW84914525 BCX0&quot;&gt;&lt;/span&gt;&lt;/span&gt;&lt;/span&gt;&lt;/span&gt;&lt;/span&gt;&lt;span style=&quot;margin: 0px; padding: 0px; user-select: text; -webkit-user-drag: none; -webkit-tap-highlight-color: transparent; transition: none 0s ease 0s; display: inline-block; position: static; border: 0px; vertical-align: 0px; line-height: normal; text-decoration: none; box-sizing: content-box; width: 0px; height: 2.122em;&quot; class=&quot;SCXW84914525 BCX0&quot;&gt;&lt;/span&gt;&lt;/span&gt;&lt;/span&gt;&lt;span style=&quot;margin: 0px; padding: 0px; user-select: text; -webkit-user-drag: none; -webkit-tap-highlight-color: transparent; transition: none 0s ease 0s; display: inline-block; position: static; border: 0px none; vertical-align: -0.291em; line-height: normal; text-decoration: none; box-sizing: content-box; overflow: hidden; width: 0px; height: 0.826em;&quot; class=&quot;SCXW84914525 BCX0&quot;&gt;&lt;/span&gt;&lt;/span&gt;&lt;/nobr&gt;&lt;span style=&quot;margin: 0px; padding: 0px; user-select: none; -webkit-user-drag: none; -webkit-tap-highlight-color: transparent; top: 0px; left: 0px; clip: rect(1px, 1px, 1px, 1px); position: static; border: 0px; width: 16px; display: inline; transition: none 0s ease 0s; vertical-align: 0px; line-height: normal; text-decoration: none; box-sizing: content-box; height: 1px !important; overflow: hidden !important;&quot; role=&quot;presentation&quot; class=&quot;MJX_Assistive_MathML MJX_Assistive_MathML_Block SCXW84914525 BCX0&quot;&gt;&lt;math class=&quot;SCXW84914525 BCX0&quot; display=&quot;block&quot; xmlns=&quot;http://www.w3.org/1998/Math/MathML&quot;&gt;&lt;/math&gt;&lt;br&gt;&lt;/span&gt;&lt;/span&gt;&lt;/div&gt;&lt;/span&gt;&lt;/span&gt;&lt;span style=&quot;margin: 0px; padding: 0px; user-select: text; -webkit-user-drag: none; -webkit-tap-highlight-color: transparent; color: windowtext; font-style: normal; font-variant-caps: normal; font-weight: 400; letter-spacing: normal; orphans: 2; text-align: left; text-indent: 0px; text-transform: none; widows: 2; word-spacing: 0px; -webkit-text-stroke-width: 0px; background-color: rgb(255, 255, 255); text-decoration-thickness: initial; text-decoration-style: initial; text-decoration-color: initial; font-size: 11pt; line-height: 19.425px; font-family: Calibri, Calibri_EmbeddedFont, Calibri_MSFontService, sans-serif; font-variant-ligatures: none !important;&quot; class=&quot;TextRun EmptyTextRun SCXW84914525 BCX0&quot; lang=&quot;EN-GB&quot; data-contrast=&quot;auto&quot;&gt;&lt;/span&gt;&lt;span style=&quot;margin: 0px; padding: 0px; user-select: text; -webkit-user-drag: none; -webkit-tap-highlight-color: transparent; color: windowtext; font-style: normal; font-variant-ligatures: normal; font-variant-caps: normal; font-weight: 400; letter-spacing: normal; orphans: 2; text-align: left; text-indent: 0px; text-transform: none; widows: 2; word-spacing: 0px; -webkit-text-stroke-width: 0px; background-color: rgb(255, 255, 255); text-decoration-thickness: initial; text-decoration-style: initial; text-decoration-color: initial; font-size: 11pt; line-height: 19.425px; font-family: Calibri, Calibri_EmbeddedFont, Calibri_MSFontService, sans-serif;&quot; data-ccp-props=&quot;{}&quot; class=&quot;EOP SCXW84914525 BCX0&quot;&gt;&amp;nbsp;&lt;/span&gt;&lt;br&gt;" style="ellipse;whiteSpace=wrap;html=1;aspect=fixed;fontSize=10;" vertex="1" parent="1">
          <mxGeometry x="170" y="1320" width="80" height="80" as="geometry" />
        </mxCell>
        <mxCell id="7_t5tHJ2iwU9-qM5MAtW-48" value="&lt;br&gt;&lt;span style=&quot;margin: 0px; padding: 0px; user-select: text; -webkit-user-drag: none; -webkit-tap-highlight-color: transparent; display: inline-block; text-indent: 0px; color: rgb(0, 0, 0); font-family: &amp;quot;Segoe UI&amp;quot;, &amp;quot;Segoe UI Web&amp;quot;, Arial, Verdana, sans-serif; font-style: normal; font-variant-ligatures: normal; font-variant-caps: normal; font-weight: 400; letter-spacing: normal; orphans: 2; text-align: left; text-transform: none; widows: 2; word-spacing: 0px; -webkit-text-stroke-width: 0px; background-color: rgb(255, 255, 255); text-decoration-thickness: initial; text-decoration-style: initial; text-decoration-color: initial; font-size: 11pt; line-height: normal;&quot; class=&quot;MathEquationContainer BlobObject DragDrop SCXW134998137 BCX0&quot;&gt;&lt;span style=&quot;margin: 0px; padding: 0px; user-select: text; -webkit-user-drag: none; -webkit-tap-highlight-color: transparent; display: inline-block; background-color: inherit;&quot; class=&quot;MathSpan SCXW134998137 BCX0&quot;&gt;&lt;div style=&quot;margin: 0px; padding: 0px; user-select: text; -webkit-user-drag: none; -webkit-tap-highlight-color: transparent; text-align: center; width: 17px; position: relative; text-indent: 0px; max-width: none; max-height: none; min-width: 0px; min-height: 0px; display: block !important;&quot; class=&quot;MathJax_Display SCXW134998137 BCX0&quot;&gt;&lt;span style=&quot;margin: 0px; padding: 0px; user-select: text; -webkit-user-drag: none; -webkit-tap-highlight-color: transparent; display: inline-table; font-style: normal; font-weight: normal; line-height: normal; font-size: 14.6667px; text-indent: 0px; text-align: center; text-transform: none; letter-spacing: normal; word-spacing: normal; overflow-wrap: normal; float: none; direction: ltr; max-width: none; max-height: none; min-width: 0px; min-height: 0px; border: 0px; position: relative;&quot; role=&quot;presentation&quot; data-mathml=&quot;&lt;math xmlns=&amp;quot;http://www.w3.org/1998/Math/MathML&amp;quot; display=&amp;quot;block&amp;quot;&gt;&lt;msub&gt;&lt;mi&gt;p&lt;/mi&gt;&lt;mi&gt;a&lt;/mi&gt;&lt;/msub&gt;&lt;/math&gt;&quot; tabindex=&quot;0&quot; id=&quot;MathJax-Element-26-Frame&quot; class=&quot;MathJax SCXW134998137 BCX0&quot;&gt;&lt;nobr style=&quot;margin: 0px; padding: 0px; user-select: text; -webkit-user-drag: none; -webkit-tap-highlight-color: transparent; transition: none 0s ease 0s; border: 0px; max-width: none; max-height: none; min-width: 0px; min-height: 0px; vertical-align: 0px; line-height: normal; text-decoration: none;&quot; class=&quot;SCXW134998137 BCX0&quot; aria-hidden=&quot;true&quot;&gt;&lt;span style=&quot;margin: 0px; padding: 0px; user-select: text; -webkit-user-drag: none; -webkit-tap-highlight-color: transparent; transition: none 0s ease 0s; display: inline; position: static; border: 0px; vertical-align: 0px; line-height: normal; text-decoration: none; box-sizing: content-box; width: 17px;&quot; id=&quot;MathJax-Span-136&quot; class=&quot;math SCXW134998137 BCX0&quot;&gt;&lt;span style=&quot;margin: 0px; padding: 0px; user-select: text; -webkit-user-drag: none; -webkit-tap-highlight-color: transparent; transition: none 0s ease 0s; display: inline-block; position: relative; border: 0px; vertical-align: 0px; line-height: normal; text-decoration: none; box-sizing: content-box; width: 17px; height: 0px; font-size: 16.28px;&quot; class=&quot;SCXW134998137 BCX0&quot;&gt;&lt;span style=&quot;margin: 0px; padding: 0px; user-select: text; -webkit-user-drag: none; -webkit-tap-highlight-color: transparent; transition: none 0s ease 0s; display: inline; position: absolute; border: 0px; vertical-align: 0px; line-height: normal; text-decoration: none; box-sizing: content-box; clip: rect(1.539em, 1000.96em, 2.493em, -999.997em); top: -2.117em; left: 0em; width: 17px;&quot; class=&quot;SCXW134998137 BCX0&quot;&gt;&lt;span style=&quot;margin: 0px; padding: 0px; user-select: text; -webkit-user-drag: none; -webkit-tap-highlight-color: transparent; transition: none 0s ease 0s; display: inline; position: static; border: 0px; vertical-align: 0px; line-height: normal; text-decoration: none; box-sizing: content-box;&quot; id=&quot;MathJax-Span-137&quot; class=&quot;mrow SCXW134998137 BCX0&quot;&gt;&lt;span style=&quot;margin: 0px; padding: 0px; user-select: text; -webkit-user-drag: none; -webkit-tap-highlight-color: transparent; transition: none 0s ease 0s; display: inline; position: static; border: 0px; vertical-align: 0px; line-height: normal; text-decoration: none; box-sizing: content-box;&quot; id=&quot;MathJax-Span-138&quot; class=&quot;msub SCXW134998137 BCX0&quot;&gt;&lt;span style=&quot;margin: 0px; padding: 0px; user-select: text; -webkit-user-drag: none; -webkit-tap-highlight-color: transparent; transition: none 0s ease 0s; display: inline-block; position: relative; border: 0px; vertical-align: 0px; line-height: normal; text-decoration: none; box-sizing: content-box; width: 0.957em; height: 0px;&quot; class=&quot;SCXW134998137 BCX0&quot;&gt;&lt;span style=&quot;margin: 0px; padding: 0px; user-select: text; -webkit-user-drag: none; -webkit-tap-highlight-color: transparent; transition: none 0s ease 0s; display: inline; position: absolute; border: 0px; vertical-align: 0px; line-height: normal; text-decoration: none; box-sizing: content-box; clip: rect(3.394em, 1000.48em, 4.348em, -999.997em); top: -3.972em; left: 0em;&quot; class=&quot;SCXW134998137 BCX0&quot;&gt;&lt;span style=&quot;margin: 0px; padding: 0px; user-select: text; -webkit-user-drag: none; -webkit-tap-highlight-color: transparent; transition: none 0s ease 0s; display: inline; position: static; border: 0px; vertical-align: 0px; line-height: normal; text-decoration: none; box-sizing: content-box; font-family: MathJax_Math-italic;&quot; id=&quot;MathJax-Span-139&quot; class=&quot;mi SCXW134998137 BCX0&quot;&gt;p&lt;/span&gt;&lt;span style=&quot;margin: 0px; padding: 0px; user-select: text; -webkit-user-drag: none; -webkit-tap-highlight-color: transparent; transition: none 0s ease 0s; display: inline-block; position: static; border: 0px; vertical-align: 0px; line-height: normal; text-decoration: none; box-sizing: content-box; width: 0px; height: 3.977em;&quot; class=&quot;SCXW134998137 BCX0&quot;&gt;&lt;/span&gt;&lt;/span&gt;&lt;span style=&quot;margin: 0px; padding: 0px; user-select: text; -webkit-user-drag: none; -webkit-tap-highlight-color: transparent; transition: none 0s ease 0s; display: inline; position: absolute; border: 0px; vertical-align: 0px; line-height: normal; text-decoration: none; box-sizing: content-box; top: -3.813em; left: 0.48em;&quot; class=&quot;SCXW134998137 BCX0&quot;&gt;&lt;span style=&quot;margin: 0px; padding: 0px; user-select: text; -webkit-user-drag: none; -webkit-tap-highlight-color: transparent; transition: none 0s ease 0s; display: inline; position: static; border: 0px; vertical-align: 0px; line-height: normal; text-decoration: none; box-sizing: content-box; font-size: 12px; font-family: MathJax_Math-italic;&quot; id=&quot;MathJax-Span-140&quot; class=&quot;mi SCXW134998137 BCX0&quot;&gt;a&lt;/span&gt;&lt;span style=&quot;margin: 0px; padding: 0px; user-select: text; -webkit-user-drag: none; -webkit-tap-highlight-color: transparent; transition: none 0s ease 0s; display: inline-block; position: static; border: 0px; vertical-align: 0px; line-height: normal; text-decoration: none; box-sizing: content-box; width: 0px; height: 3.977em;&quot; class=&quot;SCXW134998137 BCX0&quot;&gt;&lt;/span&gt;&lt;/span&gt;&lt;/span&gt;&lt;/span&gt;&lt;/span&gt;&lt;span style=&quot;margin: 0px; padding: 0px; user-select: text; -webkit-user-drag: none; -webkit-tap-highlight-color: transparent; transition: none 0s ease 0s; display: inline-block; position: static; border: 0px; vertical-align: 0px; line-height: normal; text-decoration: none; box-sizing: content-box; width: 0px; height: 2.122em;&quot; class=&quot;SCXW134998137 BCX0&quot;&gt;&lt;/span&gt;&lt;/span&gt;&lt;/span&gt;&lt;span style=&quot;margin: 0px; padding: 0px; user-select: text; -webkit-user-drag: none; -webkit-tap-highlight-color: transparent; transition: none 0s ease 0s; display: inline-block; position: static; border: 0px none; vertical-align: -0.291em; line-height: normal; text-decoration: none; box-sizing: content-box; overflow: hidden; width: 0px; height: 0.826em;&quot; class=&quot;SCXW134998137 BCX0&quot;&gt;&lt;/span&gt;&lt;/span&gt;&lt;/nobr&gt;&lt;span style=&quot;margin: 0px; padding: 0px; user-select: none; -webkit-user-drag: none; -webkit-tap-highlight-color: transparent; top: 0px; left: 0px; clip: rect(1px, 1px, 1px, 1px); position: static; border: 0px; width: 17px; display: inline; transition: none 0s ease 0s; vertical-align: 0px; line-height: normal; text-decoration: none; box-sizing: content-box; height: 1px !important; overflow: hidden !important;&quot; role=&quot;presentation&quot; class=&quot;MJX_Assistive_MathML MJX_Assistive_MathML_Block SCXW134998137 BCX0&quot;&gt;&lt;math class=&quot;SCXW134998137 BCX0&quot; display=&quot;block&quot; xmlns=&quot;http://www.w3.org/1998/Math/MathML&quot;&gt;&lt;/math&gt;&lt;br&gt;&lt;/span&gt;&lt;/span&gt;&lt;/div&gt;&lt;/span&gt;&lt;/span&gt;&lt;span style=&quot;margin: 0px; padding: 0px; user-select: text; -webkit-user-drag: none; -webkit-tap-highlight-color: transparent; color: windowtext; font-style: normal; font-variant-caps: normal; font-weight: 400; letter-spacing: normal; orphans: 2; text-align: left; text-indent: 0px; text-transform: none; widows: 2; word-spacing: 0px; -webkit-text-stroke-width: 0px; background-color: rgb(255, 255, 255); text-decoration-thickness: initial; text-decoration-style: initial; text-decoration-color: initial; font-size: 11pt; line-height: 19.425px; font-family: Calibri, Calibri_EmbeddedFont, Calibri_MSFontService, sans-serif; font-variant-ligatures: none !important;&quot; class=&quot;TextRun EmptyTextRun SCXW134998137 BCX0&quot; lang=&quot;EN-GB&quot; data-contrast=&quot;auto&quot;&gt;&lt;/span&gt;&lt;span style=&quot;margin: 0px; padding: 0px; user-select: text; -webkit-user-drag: none; -webkit-tap-highlight-color: transparent; display: inline-block; text-indent: 0px; color: rgb(0, 0, 0); font-family: &amp;quot;Segoe UI&amp;quot;, &amp;quot;Segoe UI Web&amp;quot;, Arial, Verdana, sans-serif; font-style: normal; font-variant-ligatures: normal; font-variant-caps: normal; font-weight: 400; letter-spacing: normal; orphans: 2; text-align: left; text-transform: none; widows: 2; word-spacing: 0px; -webkit-text-stroke-width: 0px; background-color: rgb(255, 255, 255); text-decoration-thickness: initial; text-decoration-style: initial; text-decoration-color: initial; font-size: 11pt; line-height: normal;&quot; class=&quot;MathEquationContainer BlobObject DragDrop SCXW134998137 BCX0&quot;&gt;&lt;span style=&quot;margin: 0px; padding: 0px; user-select: text; -webkit-user-drag: none; -webkit-tap-highlight-color: transparent; display: inline-block; background-color: inherit;&quot; class=&quot;MathSpan SCXW134998137 BCX0&quot;&gt;&lt;span style=&quot;margin: 0px; padding: 0px; user-select: text; -webkit-user-drag: none; -webkit-tap-highlight-color: transparent; color: inherit;&quot; class=&quot;MathJax_Preview SCXW134998137 BCX0&quot;&gt;&lt;/span&gt;&lt;div style=&quot;margin: 0px; padding: 0px; user-select: text; -webkit-user-drag: none; -webkit-tap-highlight-color: transparent; text-align: center; width: 17px; position: relative; text-indent: 0px; max-width: none; max-height: none; min-width: 0px; min-height: 0px; display: block !important;&quot; class=&quot;MathJax_Display SCXW134998137 BCX0&quot;&gt;&lt;span style=&quot;margin: 0px; padding: 0px; user-select: text; -webkit-user-drag: none; -webkit-tap-highlight-color: transparent; display: inline-table; font-style: normal; font-weight: normal; line-height: normal; font-size: 14.6667px; text-indent: 0px; text-align: center; text-transform: none; letter-spacing: normal; word-spacing: normal; overflow-wrap: normal; float: none; direction: ltr; max-width: none; max-height: none; min-width: 0px; min-height: 0px; border: 0px; position: relative;&quot; role=&quot;presentation&quot; data-mathml=&quot;&lt;math xmlns=&amp;quot;http://www.w3.org/1998/Math/MathML&amp;quot; display=&amp;quot;block&amp;quot;&gt;&lt;msub&gt;&lt;mi&gt;n&lt;/mi&gt;&lt;mi&gt;b&lt;/mi&gt;&lt;/msub&gt;&lt;/math&gt;&quot; tabindex=&quot;0&quot; id=&quot;MathJax-Element-27-Frame&quot; class=&quot;MathJax SCXW134998137 BCX0&quot;&gt;&lt;nobr style=&quot;margin: 0px; padding: 0px; user-select: text; -webkit-user-drag: none; -webkit-tap-highlight-color: transparent; transition: none 0s ease 0s; border: 0px; max-width: none; max-height: none; min-width: 0px; min-height: 0px; vertical-align: 0px; line-height: normal; text-decoration: none;&quot; class=&quot;SCXW134998137 BCX0&quot; aria-hidden=&quot;true&quot;&gt;&lt;span style=&quot;margin: 0px; padding: 0px; user-select: text; -webkit-user-drag: none; -webkit-tap-highlight-color: transparent; transition: none 0s ease 0s; display: inline; position: static; border: 0px; vertical-align: 0px; line-height: normal; text-decoration: none; box-sizing: content-box; width: 17px;&quot; id=&quot;MathJax-Span-141&quot; class=&quot;math SCXW134998137 BCX0&quot;&gt;&lt;span style=&quot;margin: 0px; padding: 0px; user-select: text; -webkit-user-drag: none; -webkit-tap-highlight-color: transparent; transition: none 0s ease 0s; display: inline-block; position: relative; border: 0px; vertical-align: 0px; line-height: normal; text-decoration: none; box-sizing: content-box; width: 17px; height: 0px; font-size: 16.28px;&quot; class=&quot;SCXW134998137 BCX0&quot;&gt;&lt;span style=&quot;margin: 0px; padding: 0px; user-select: text; -webkit-user-drag: none; -webkit-tap-highlight-color: transparent; transition: none 0s ease 0s; display: inline; position: absolute; border: 0px; vertical-align: 0px; line-height: normal; text-decoration: none; box-sizing: content-box; clip: rect(1.539em, 1000.96em, 2.44em, -999.997em); top: -2.117em; left: 0em; width: 17px;&quot; class=&quot;SCXW134998137 BCX0&quot;&gt;&lt;span style=&quot;margin: 0px; padding: 0px; user-select: text; -webkit-user-drag: none; -webkit-tap-highlight-color: transparent; transition: none 0s ease 0s; display: inline; position: static; border: 0px; vertical-align: 0px; line-height: normal; text-decoration: none; box-sizing: content-box;&quot; id=&quot;MathJax-Span-142&quot; class=&quot;mrow SCXW134998137 BCX0&quot;&gt;&lt;span style=&quot;margin: 0px; padding: 0px; user-select: text; -webkit-user-drag: none; -webkit-tap-highlight-color: transparent; transition: none 0s ease 0s; display: inline; position: static; border: 0px; vertical-align: 0px; line-height: normal; text-decoration: none; box-sizing: content-box;&quot; id=&quot;MathJax-Span-143&quot; class=&quot;msub SCXW134998137 BCX0&quot;&gt;&lt;span style=&quot;margin: 0px; padding: 0px; user-select: text; -webkit-user-drag: none; -webkit-tap-highlight-color: transparent; transition: none 0s ease 0s; display: inline-block; position: relative; border: 0px; vertical-align: 0px; line-height: normal; text-decoration: none; box-sizing: content-box; width: 0.957em; height: 0px;&quot; class=&quot;SCXW134998137 BCX0&quot;&gt;&lt;span style=&quot;margin: 0px; padding: 0px; user-select: text; -webkit-user-drag: none; -webkit-tap-highlight-color: transparent; transition: none 0s ease 0s; display: inline; position: absolute; border: 0px; vertical-align: 0px; line-height: normal; text-decoration: none; box-sizing: content-box; clip: rect(3.394em, 1000.59em, 4.136em, -999.997em); top: -3.972em; left: 0em;&quot; class=&quot;SCXW134998137 BCX0&quot;&gt;&lt;span style=&quot;margin: 0px; padding: 0px; user-select: text; -webkit-user-drag: none; -webkit-tap-highlight-color: transparent; transition: none 0s ease 0s; display: inline; position: static; border: 0px; vertical-align: 0px; line-height: normal; text-decoration: none; box-sizing: content-box; font-family: MathJax_Math-italic;&quot; id=&quot;MathJax-Span-144&quot; class=&quot;mi SCXW134998137 BCX0&quot;&gt;n&lt;/span&gt;&lt;span style=&quot;margin: 0px; padding: 0px; user-select: text; -webkit-user-drag: none; -webkit-tap-highlight-color: transparent; transition: none 0s ease 0s; display: inline-block; position: static; border: 0px; vertical-align: 0px; line-height: normal; text-decoration: none; box-sizing: content-box; width: 0px; height: 3.977em;&quot; class=&quot;SCXW134998137 BCX0&quot;&gt;&lt;/span&gt;&lt;/span&gt;&lt;span style=&quot;margin: 0px; padding: 0px; user-select: text; -webkit-user-drag: none; -webkit-tap-highlight-color: transparent; transition: none 0s ease 0s; display: inline; position: absolute; border: 0px; vertical-align: 0px; line-height: normal; text-decoration: none; box-sizing: content-box; top: -3.813em; left: 0.586em;&quot; class=&quot;SCXW134998137 BCX0&quot;&gt;&lt;span style=&quot;margin: 0px; padding: 0px; user-select: text; -webkit-user-drag: none; -webkit-tap-highlight-color: transparent; transition: none 0s ease 0s; display: inline; position: static; border: 0px; vertical-align: 0px; line-height: normal; text-decoration: none; box-sizing: content-box; font-size: 12px; font-family: MathJax_Math-italic;&quot; id=&quot;MathJax-Span-145&quot; class=&quot;mi SCXW134998137 BCX0&quot;&gt;b&lt;/span&gt;&lt;span style=&quot;margin: 0px; padding: 0px; user-select: text; -webkit-user-drag: none; -webkit-tap-highlight-color: transparent; transition: none 0s ease 0s; display: inline-block; position: static; border: 0px; vertical-align: 0px; line-height: normal; text-decoration: none; box-sizing: content-box; width: 0px; height: 3.977em;&quot; class=&quot;SCXW134998137 BCX0&quot;&gt;&lt;/span&gt;&lt;/span&gt;&lt;/span&gt;&lt;/span&gt;&lt;/span&gt;&lt;span style=&quot;margin: 0px; padding: 0px; user-select: text; -webkit-user-drag: none; -webkit-tap-highlight-color: transparent; transition: none 0s ease 0s; display: inline-block; position: static; border: 0px; vertical-align: 0px; line-height: normal; text-decoration: none; box-sizing: content-box; width: 0px; height: 2.122em;&quot; class=&quot;SCXW134998137 BCX0&quot;&gt;&lt;/span&gt;&lt;/span&gt;&lt;/span&gt;&lt;span style=&quot;margin: 0px; padding: 0px; user-select: text; -webkit-user-drag: none; -webkit-tap-highlight-color: transparent; transition: none 0s ease 0s; display: inline-block; position: static; border: 0px none; vertical-align: -0.232em; line-height: normal; text-decoration: none; box-sizing: content-box; overflow: hidden; width: 0px; height: 0.768em;&quot; class=&quot;SCXW134998137 BCX0&quot;&gt;&lt;/span&gt;&lt;/span&gt;&lt;/nobr&gt;&lt;span style=&quot;margin: 0px; padding: 0px; user-select: none; -webkit-user-drag: none; -webkit-tap-highlight-color: transparent; top: 0px; left: 0px; clip: rect(1px, 1px, 1px, 1px); position: static; border: 0px; width: 17px; display: inline; transition: none 0s ease 0s; vertical-align: 0px; line-height: normal; text-decoration: none; box-sizing: content-box; height: 1px !important; overflow: hidden !important;&quot; role=&quot;presentation&quot; class=&quot;MJX_Assistive_MathML MJX_Assistive_MathML_Block SCXW134998137 BCX0&quot;&gt;&lt;math class=&quot;SCXW134998137 BCX0&quot; display=&quot;block&quot; xmlns=&quot;http://www.w3.org/1998/Math/MathML&quot;&gt;&lt;/math&gt;&lt;br&gt;&lt;/span&gt;&lt;/span&gt;&lt;/div&gt;&lt;/span&gt;&lt;/span&gt;&lt;span style=&quot;margin: 0px; padding: 0px; user-select: text; -webkit-user-drag: none; -webkit-tap-highlight-color: transparent; color: windowtext; font-style: normal; font-variant-caps: normal; font-weight: 400; letter-spacing: normal; orphans: 2; text-align: left; text-indent: 0px; text-transform: none; widows: 2; word-spacing: 0px; -webkit-text-stroke-width: 0px; background-color: rgb(255, 255, 255); text-decoration-thickness: initial; text-decoration-style: initial; text-decoration-color: initial; font-size: 11pt; line-height: 19.425px; font-family: Calibri, Calibri_EmbeddedFont, Calibri_MSFontService, sans-serif; font-variant-ligatures: none !important;&quot; class=&quot;TextRun EmptyTextRun SCXW134998137 BCX0&quot; lang=&quot;EN-GB&quot; data-contrast=&quot;auto&quot;&gt;&lt;/span&gt;&lt;span style=&quot;margin: 0px; padding: 0px; user-select: text; -webkit-user-drag: none; -webkit-tap-highlight-color: transparent; color: windowtext; font-style: normal; font-variant-ligatures: normal; font-variant-caps: normal; font-weight: 400; letter-spacing: normal; orphans: 2; text-align: left; text-indent: 0px; text-transform: none; widows: 2; word-spacing: 0px; -webkit-text-stroke-width: 0px; background-color: rgb(255, 255, 255); text-decoration-thickness: initial; text-decoration-style: initial; text-decoration-color: initial; font-size: 11pt; line-height: 19.425px; font-family: Calibri, Calibri_EmbeddedFont, Calibri_MSFontService, sans-serif;&quot; data-ccp-props=&quot;{}&quot; class=&quot;EOP SCXW134998137 BCX0&quot;&gt;&amp;nbsp;&lt;/span&gt;&lt;br&gt;" style="ellipse;whiteSpace=wrap;html=1;aspect=fixed;fontSize=10;" vertex="1" parent="1">
          <mxGeometry x="437.75" y="1320" width="80" height="80" as="geometry" />
        </mxCell>
        <mxCell id="7_t5tHJ2iwU9-qM5MAtW-49" value="" style="endArrow=classic;html=1;rounded=0;fontSize=10;" edge="1" parent="1">
          <mxGeometry width="50" height="50" relative="1" as="geometry">
            <mxPoint x="414" y="1190.5" as="sourcePoint" />
            <mxPoint x="264" y="1190" as="targetPoint" />
          </mxGeometry>
        </mxCell>
        <mxCell id="7_t5tHJ2iwU9-qM5MAtW-50" value="" style="endArrow=classic;html=1;rounded=0;fontSize=10;" edge="1" parent="1">
          <mxGeometry width="50" height="50" relative="1" as="geometry">
            <mxPoint x="260" y="1220" as="sourcePoint" />
            <mxPoint x="420" y="1220.5" as="targetPoint" />
          </mxGeometry>
        </mxCell>
        <mxCell id="7_t5tHJ2iwU9-qM5MAtW-52" value="" style="endArrow=classic;html=1;rounded=0;fontSize=10;entryX=0.25;entryY=1;entryDx=0;entryDy=0;entryPerimeter=0;" edge="1" parent="1">
          <mxGeometry width="50" height="50" relative="1" as="geometry">
            <mxPoint x="198" y="1312" as="sourcePoint" />
            <mxPoint x="198" y="1242" as="targetPoint" />
            <Array as="points">
              <mxPoint x="198" y="1272" />
            </Array>
          </mxGeometry>
        </mxCell>
        <mxCell id="7_t5tHJ2iwU9-qM5MAtW-53" value="" style="endArrow=classic;html=1;rounded=0;fontSize=10;" edge="1" parent="1">
          <mxGeometry width="50" height="50" relative="1" as="geometry">
            <mxPoint x="220" y="1250" as="sourcePoint" />
            <mxPoint x="220" y="1310" as="targetPoint" />
          </mxGeometry>
        </mxCell>
        <mxCell id="7_t5tHJ2iwU9-qM5MAtW-54" value="" style="endArrow=classic;html=1;rounded=0;fontSize=10;" edge="1" parent="1">
          <mxGeometry width="50" height="50" relative="1" as="geometry">
            <mxPoint x="470" y="1310" as="sourcePoint" />
            <mxPoint x="470" y="1250" as="targetPoint" />
            <Array as="points">
              <mxPoint x="470" y="1280" />
            </Array>
          </mxGeometry>
        </mxCell>
        <mxCell id="7_t5tHJ2iwU9-qM5MAtW-55" value="" style="endArrow=classic;html=1;rounded=0;fontSize=10;" edge="1" parent="1">
          <mxGeometry width="50" height="50" relative="1" as="geometry">
            <mxPoint x="490" y="1250" as="sourcePoint" />
            <mxPoint x="490" y="1320" as="targetPoint" />
          </mxGeometry>
        </mxCell>
        <mxCell id="7_t5tHJ2iwU9-qM5MAtW-56" value="" style="endArrow=classic;html=1;rounded=0;fontSize=10;" edge="1" parent="1">
          <mxGeometry width="50" height="50" relative="1" as="geometry">
            <mxPoint x="260" y="1370" as="sourcePoint" />
            <mxPoint x="420" y="1370.5" as="targetPoint" />
          </mxGeometry>
        </mxCell>
        <mxCell id="7_t5tHJ2iwU9-qM5MAtW-57" value="" style="endArrow=classic;html=1;rounded=0;fontSize=10;" edge="1" parent="1">
          <mxGeometry width="50" height="50" relative="1" as="geometry">
            <mxPoint x="420" y="1350" as="sourcePoint" />
            <mxPoint x="257.75" y="1350" as="targetPoint" />
          </mxGeometry>
        </mxCell>
        <mxCell id="7_t5tHJ2iwU9-qM5MAtW-58" value="b&lt;span style=&quot;color: rgba(0, 0, 0, 0); font-family: monospace; font-size: 0px; text-align: start;&quot;&gt;%3CmxGraphModel%3E%3Croot%3E%3CmxCell%20id%3D%220%22%2F%3E%3CmxCell%20id%3D%221%22%20parent%3D%220%22%2F%3E%3CmxCell%20id%3D%222%22%20value%3D%22%22%20style%3D%22endArrow%3Dclassic%3Bhtml%3D1%3Brounded%3D0%3BfontSize%3D10%3B%22%20edge%3D%221%22%20parent%3D%221%22%3E%3CmxGeometry%20width%3D%2250%22%20height%3D%2250%22%20relative%3D%221%22%20as%3D%22geometry%22%3E%3CmxPoint%20x%3D%22414%22%20y%3D%221190.5%22%20as%3D%22sourcePoint%22%2F%3E%3CmxPoint%20x%3D%22264%22%20y%3D%221190%22%20as%3D%22targetPoint%22%2F%3E%3C%2FmxGeometry%3E%3C%2FmxCell%3E%3C%2Froot%3E%3C%2FmxGraphModel%3E&lt;/span&gt;" style="text;html=1;strokeColor=none;fillColor=none;align=center;verticalAlign=middle;whiteSpace=wrap;rounded=0;fontSize=10;" vertex="1" parent="1">
          <mxGeometry x="140" y="1270" width="60" height="30" as="geometry" />
        </mxCell>
        <mxCell id="7_t5tHJ2iwU9-qM5MAtW-59" value="b&lt;span style=&quot;color: rgba(0, 0, 0, 0); font-family: monospace; font-size: 0px; text-align: start;&quot;&gt;%3CmxGraphModel%3E%3Croot%3E%3CmxCell%20id%3D%220%22%2F%3E%3CmxCell%20id%3D%221%22%20parent%3D%220%22%2F%3E%3CmxCell%20id%3D%222%22%20value%3D%22%22%20style%3D%22endArrow%3Dclassic%3Bhtml%3D1%3Brounded%3D0%3BfontSize%3D10%3B%22%20edge%3D%221%22%20parent%3D%221%22%3E%3CmxGeometry%20width%3D%2250%22%20height%3D%2250%22%20relative%3D%221%22%20as%3D%22geometry%22%3E%3CmxPoint%20x%3D%22414%22%20y%3D%221190.5%22%20as%3D%22sourcePoint%22%2F%3E%3CmxPoint%20x%3D%22264%22%20y%3D%221190%22%20as%3D%22targetPoint%22%2F%3E%3C%2FmxGeometry%3E%3C%2FmxCell%3E%3C%2Froot%3E%3C%2FmxGraphModel%3E&lt;/span&gt;" style="text;html=1;strokeColor=none;fillColor=none;align=center;verticalAlign=middle;whiteSpace=wrap;rounded=0;fontSize=10;" vertex="1" parent="1">
          <mxGeometry x="215" y="1270" width="60" height="30" as="geometry" />
        </mxCell>
        <mxCell id="7_t5tHJ2iwU9-qM5MAtW-60" value="b&lt;span style=&quot;color: rgba(0, 0, 0, 0); font-family: monospace; font-size: 0px; text-align: start;&quot;&gt;%3CmxGraphModel%3E%3Croot%3E%3CmxCell%20id%3D%220%22%2F%3E%3CmxCell%20id%3D%221%22%20parent%3D%220%22%2F%3E%3CmxCell%20id%3D%222%22%20value%3D%22%22%20style%3D%22endArrow%3Dclassic%3Bhtml%3D1%3Brounded%3D0%3BfontSize%3D10%3B%22%20edge%3D%221%22%20parent%3D%221%22%3E%3CmxGeometry%20width%3D%2250%22%20height%3D%2250%22%20relative%3D%221%22%20as%3D%22geometry%22%3E%3CmxPoint%20x%3D%22414%22%20y%3D%221190.5%22%20as%3D%22sourcePoint%22%2F%3E%3CmxPoint%20x%3D%22264%22%20y%3D%221190%22%20as%3D%22targetPoint%22%2F%3E%3C%2FmxGeometry%3E%3C%2FmxCell%3E%3C%2Froot%3E%3C%2FmxGraphModel%3E&lt;/span&gt;" style="text;html=1;strokeColor=none;fillColor=none;align=center;verticalAlign=middle;whiteSpace=wrap;rounded=0;fontSize=10;" vertex="1" parent="1">
          <mxGeometry x="414" y="1270" width="60" height="30" as="geometry" />
        </mxCell>
        <mxCell id="7_t5tHJ2iwU9-qM5MAtW-61" value="b&lt;span style=&quot;color: rgba(0, 0, 0, 0); font-family: monospace; font-size: 0px; text-align: start;&quot;&gt;%3CmxGraphModel%3E%3Croot%3E%3CmxCell%20id%3D%220%22%2F%3E%3CmxCell%20id%3D%221%22%20parent%3D%220%22%2F%3E%3CmxCell%20id%3D%222%22%20value%3D%22%22%20style%3D%22endArrow%3Dclassic%3Bhtml%3D1%3Brounded%3D0%3BfontSize%3D10%3B%22%20edge%3D%221%22%20parent%3D%221%22%3E%3CmxGeometry%20width%3D%2250%22%20height%3D%2250%22%20relative%3D%221%22%20as%3D%22geometry%22%3E%3CmxPoint%20x%3D%22414%22%20y%3D%221190.5%22%20as%3D%22sourcePoint%22%2F%3E%3CmxPoint%20x%3D%22264%22%20y%3D%221190%22%20as%3D%22targetPoint%22%2F%3E%3C%2FmxGeometry%3E%3C%2FmxCell%3E%3C%2Froot%3E%3C%2FmxGraphModel%3E&lt;/span&gt;" style="text;html=1;strokeColor=none;fillColor=none;align=center;verticalAlign=middle;whiteSpace=wrap;rounded=0;fontSize=10;" vertex="1" parent="1">
          <mxGeometry x="490" y="1270" width="60" height="30" as="geometry" />
        </mxCell>
        <mxCell id="7_t5tHJ2iwU9-qM5MAtW-62" value="&lt;span style=&quot;font-size: 10px;&quot;&gt;a&lt;/span&gt;" style="text;html=1;strokeColor=none;fillColor=none;align=center;verticalAlign=middle;whiteSpace=wrap;rounded=0;fontSize=10;" vertex="1" parent="1">
          <mxGeometry x="310" y="1320" width="60" height="30" as="geometry" />
        </mxCell>
        <mxCell id="7_t5tHJ2iwU9-qM5MAtW-63" value="&lt;span style=&quot;font-size: 10px;&quot;&gt;a&lt;/span&gt;" style="text;html=1;strokeColor=none;fillColor=none;align=center;verticalAlign=middle;whiteSpace=wrap;rounded=0;fontSize=10;" vertex="1" parent="1">
          <mxGeometry x="310" y="1380" width="60" height="30" as="geometry" />
        </mxCell>
        <mxCell id="7_t5tHJ2iwU9-qM5MAtW-64" value="&lt;span style=&quot;font-size: 10px;&quot;&gt;a&lt;/span&gt;" style="text;html=1;strokeColor=none;fillColor=none;align=center;verticalAlign=middle;whiteSpace=wrap;rounded=0;fontSize=10;" vertex="1" parent="1">
          <mxGeometry x="320" y="1150" width="60" height="30" as="geometry" />
        </mxCell>
        <mxCell id="7_t5tHJ2iwU9-qM5MAtW-65" value="&lt;span style=&quot;font-size: 10px;&quot;&gt;a&lt;/span&gt;" style="text;html=1;strokeColor=none;fillColor=none;align=center;verticalAlign=middle;whiteSpace=wrap;rounded=0;fontSize=10;" vertex="1" parent="1">
          <mxGeometry x="320" y="1220" width="60" height="30" as="geometry" />
        </mxCell>
        <mxCell id="7_t5tHJ2iwU9-qM5MAtW-66" value="&lt;span style=&quot;margin: 0px; padding: 0px; user-select: text; -webkit-user-drag: none; -webkit-tap-highlight-color: transparent; display: inline-block; font-family: &amp;quot;Segoe UI&amp;quot;, &amp;quot;Segoe UI Web&amp;quot;, Arial, Verdana, sans-serif; text-align: left; background-color: rgb(255, 255, 255); font-size: 11pt; line-height: normal;&quot; class=&quot;MathEquationContainer BlobObject DragDrop SCXW61687723 BCX0&quot;&gt;&lt;span style=&quot;margin: 0px; padding: 0px; user-select: text; -webkit-user-drag: none; -webkit-tap-highlight-color: transparent; display: inline-block; background-color: inherit;&quot; class=&quot;MathSpan SCXW61687723 BCX0&quot;&gt;&lt;div style=&quot;margin: 0px; padding: 0px; user-select: text; -webkit-user-drag: none; -webkit-tap-highlight-color: transparent; text-align: center; width: 18px; position: relative; max-width: none; max-height: none; min-width: 0px; min-height: 0px;&quot; class=&quot;MathJax_Display SCXW61687723 BCX0&quot;&gt;&lt;span style=&quot;margin: 0px; padding: 0px; user-select: text; -webkit-user-drag: none; -webkit-tap-highlight-color: transparent; display: inline-table; line-height: normal; word-spacing: normal; overflow-wrap: normal; float: none; direction: ltr; max-width: none; max-height: none; min-width: 0px; min-height: 0px; border: 0px; position: relative;&quot; role=&quot;presentation&quot; tabindex=&quot;0&quot; id=&quot;MathJax-Element-17-Frame&quot; class=&quot;MathJax SCXW61687723 BCX0&quot;&gt;&lt;nobr style=&quot;margin: 0px; padding: 0px; user-select: text; -webkit-user-drag: none; -webkit-tap-highlight-color: transparent; transition: none 0s ease 0s; border: 0px; max-width: none; max-height: none; min-width: 0px; min-height: 0px; vertical-align: 0px; line-height: normal;&quot; class=&quot;SCXW61687723 BCX0&quot; aria-hidden=&quot;true&quot;&gt;&lt;span style=&quot;margin: 0px; padding: 0px; user-select: text; -webkit-user-drag: none; -webkit-tap-highlight-color: transparent; transition: none 0s ease 0s; display: inline; position: static; border: 0px; vertical-align: 0px; line-height: normal; box-sizing: content-box; width: 18px;&quot; id=&quot;MathJax-Span-89&quot; class=&quot;math SCXW61687723 BCX0&quot;&gt;&lt;span style=&quot;margin: 0px; padding: 0px; user-select: text; -webkit-user-drag: none; -webkit-tap-highlight-color: transparent; transition: none 0s ease 0s; display: inline-block; position: relative; border: 0px; vertical-align: 0px; line-height: normal; box-sizing: content-box; width: 18px; height: 0px; font-size: 16.28px;&quot; class=&quot;SCXW61687723 BCX0&quot;&gt;&lt;span style=&quot;margin: 0px; padding: 0px; user-select: text; -webkit-user-drag: none; -webkit-tap-highlight-color: transparent; transition: none 0s ease 0s; display: inline; position: absolute; border: 0px; vertical-align: 0px; line-height: normal; box-sizing: content-box; clip: rect(1.539em, 1001.06em, 2.44em, -999.997em); top: -2.117em; left: 0em; width: 18px;&quot; class=&quot;SCXW61687723 BCX0&quot;&gt;&lt;span style=&quot;margin: 0px; padding: 0px; user-select: text; -webkit-user-drag: none; -webkit-tap-highlight-color: transparent; transition: none 0s ease 0s; display: inline; position: static; border: 0px; vertical-align: 0px; line-height: normal; box-sizing: content-box;&quot; id=&quot;MathJax-Span-90&quot; class=&quot;mrow SCXW61687723 BCX0&quot;&gt;&lt;span style=&quot;margin: 0px; padding: 0px; user-select: text; -webkit-user-drag: none; -webkit-tap-highlight-color: transparent; transition: none 0s ease 0s; display: inline; position: static; border: 0px; vertical-align: 0px; line-height: normal; box-sizing: content-box;&quot; id=&quot;MathJax-Span-91&quot; class=&quot;msub SCXW61687723 BCX0&quot;&gt;&lt;span style=&quot;margin: 0px; padding: 0px; user-select: text; -webkit-user-drag: none; -webkit-tap-highlight-color: transparent; transition: none 0s ease 0s; display: inline-block; position: relative; border: 0px; vertical-align: 0px; line-height: normal; box-sizing: content-box; width: 1.063em; height: 0px;&quot; class=&quot;SCXW61687723 BCX0&quot;&gt;&lt;span style=&quot;margin: 0px; padding: 0px; user-select: text; -webkit-user-drag: none; -webkit-tap-highlight-color: transparent; transition: none 0s ease 0s; display: inline; position: absolute; border: 0px; vertical-align: 0px; line-height: normal; box-sizing: content-box; clip: rect(3.394em, 1000.59em, 4.136em, -999.997em); top: -3.972em; left: 0em;&quot; class=&quot;SCXW61687723 BCX0&quot;&gt;&lt;span style=&quot;margin: 0px; padding: 0px; user-select: text; -webkit-user-drag: none; -webkit-tap-highlight-color: transparent; transition: none 0s ease 0s; display: inline; position: static; border: 0px; vertical-align: 0px; line-height: normal; box-sizing: content-box; font-family: MathJax_Math-italic;&quot; id=&quot;MathJax-Span-92&quot; class=&quot;mi SCXW61687723 BCX0&quot;&gt;n&lt;/span&gt;&lt;span style=&quot;margin: 0px; padding: 0px; user-select: text; -webkit-user-drag: none; -webkit-tap-highlight-color: transparent; transition: none 0s ease 0s; display: inline-block; position: static; border: 0px; vertical-align: 0px; line-height: normal; box-sizing: content-box; width: 0px; height: 3.977em;&quot; class=&quot;SCXW61687723 BCX0&quot;&gt;&lt;/span&gt;&lt;/span&gt;&lt;span style=&quot;margin: 0px; padding: 0px; user-select: text; -webkit-user-drag: none; -webkit-tap-highlight-color: transparent; transition: none 0s ease 0s; display: inline; position: absolute; border: 0px; vertical-align: 0px; line-height: normal; box-sizing: content-box; top: -3.813em; left: 0.586em;&quot; class=&quot;SCXW61687723 BCX0&quot;&gt;&lt;span style=&quot;margin: 0px; padding: 0px; user-select: text; -webkit-user-drag: none; -webkit-tap-highlight-color: transparent; transition: none 0s ease 0s; display: inline; position: static; border: 0px; vertical-align: 0px; line-height: normal; box-sizing: content-box;&quot; id=&quot;MathJax-Span-93&quot; class=&quot;mrow SCXW61687723 BCX0&quot;&gt;&lt;span style=&quot;margin: 0px; padding: 0px; user-select: text; -webkit-user-drag: none; -webkit-tap-highlight-color: transparent; transition: none 0s ease 0s; display: inline; position: static; border: 0px; vertical-align: 0px; line-height: normal; box-sizing: content-box;&quot; id=&quot;MathJax-Span-94&quot; class=&quot;msub SCXW61687723 BCX0&quot;&gt;&lt;span style=&quot;margin: 0px; padding: 0px; user-select: text; -webkit-user-drag: none; -webkit-tap-highlight-color: transparent; transition: none 0s ease 0s; display: inline-block; position: relative; border: 0px; vertical-align: 0px; line-height: normal; box-sizing: content-box; width: 0.374em; height: 0px;&quot; class=&quot;SCXW61687723 BCX0&quot;&gt;&lt;span style=&quot;margin: 0px; padding: 0px; user-select: text; -webkit-user-drag: none; -webkit-tap-highlight-color: transparent; transition: none 0s ease 0s; display: inline; position: absolute; border: 0px; vertical-align: 0px; line-height: normal; box-sizing: content-box; clip: rect(3.5em, 1000.37em, 4.136em, -999.997em); top: -3.972em; left: 0em;&quot; class=&quot;SCXW61687723 BCX0&quot;&gt;&lt;span style=&quot;margin: 0px; padding: 0px; user-select: text; -webkit-user-drag: none; -webkit-tap-highlight-color: transparent; transition: none 0s ease 0s; display: inline; position: static; border: 0px; vertical-align: 0px; line-height: normal; box-sizing: content-box; font-size: 12px; font-family: MathJax_Math-italic;&quot; id=&quot;MathJax-Span-95&quot; class=&quot;mi SCXW61687723 BCX0&quot;&gt;a&lt;/span&gt;&lt;span style=&quot;margin: 0px; padding: 0px; user-select: text; -webkit-user-drag: none; -webkit-tap-highlight-color: transparent; transition: none 0s ease 0s; display: inline-block; position: static; border: 0px; vertical-align: 0px; line-height: normal; box-sizing: content-box; width: 0px; height: 3.977em;&quot; class=&quot;SCXW61687723 BCX0&quot;&gt;&lt;/span&gt;&lt;/span&gt;&lt;/span&gt;&lt;/span&gt;&lt;/span&gt;&lt;span style=&quot;margin: 0px; padding: 0px; user-select: text; -webkit-user-drag: none; -webkit-tap-highlight-color: transparent; transition: none 0s ease 0s; display: inline-block; position: static; border: 0px; vertical-align: 0px; line-height: normal; box-sizing: content-box; width: 0px; height: 3.977em;&quot; class=&quot;SCXW61687723 BCX0&quot;&gt;&lt;/span&gt;&lt;/span&gt;&lt;/span&gt;&lt;/span&gt;&lt;/span&gt;&lt;span style=&quot;margin: 0px; padding: 0px; user-select: text; -webkit-user-drag: none; -webkit-tap-highlight-color: transparent; transition: none 0s ease 0s; display: inline-block; position: static; border: 0px; vertical-align: 0px; line-height: normal; box-sizing: content-box; width: 0px; height: 2.122em;&quot; class=&quot;SCXW61687723 BCX0&quot;&gt;&lt;/span&gt;&lt;/span&gt;&lt;/span&gt;&lt;span style=&quot;margin: 0px; padding: 0px; user-select: text; -webkit-user-drag: none; -webkit-tap-highlight-color: transparent; transition: none 0s ease 0s; display: inline-block; position: static; border: 0px none; vertical-align: -0.232em; line-height: normal; box-sizing: content-box; overflow: hidden; width: 0px; height: 0.768em;&quot; class=&quot;SCXW61687723 BCX0&quot;&gt;&lt;/span&gt;&lt;/span&gt;&lt;/nobr&gt;&lt;span style=&quot;margin: 0px; padding: 0px; user-select: none; -webkit-user-drag: none; -webkit-tap-highlight-color: transparent; top: 0px; left: 0px; clip: rect(1px, 1px, 1px, 1px); position: static; border: 0px; width: 18px; display: inline; transition: none 0s ease 0s; vertical-align: 0px; line-height: normal; box-sizing: content-box; height: 1px !important; overflow: hidden !important;&quot; role=&quot;presentation&quot; class=&quot;MJX_Assistive_MathML MJX_Assistive_MathML_Block SCXW61687723 BCX0&quot;&gt;&lt;math class=&quot;SCXW61687723 BCX0&quot; display=&quot;block&quot; xmlns=&quot;http://www.w3.org/1998/Math/MathML&quot;&gt;&lt;/math&gt;&lt;br&gt;&lt;/span&gt;&lt;/span&gt;&lt;/div&gt;&lt;/span&gt;&lt;/span&gt;&lt;span style=&quot;margin: 0px; padding: 0px; user-select: text; -webkit-user-drag: none; -webkit-tap-highlight-color: transparent; color: windowtext; text-align: left; background-color: rgb(255, 255, 255); font-size: 11pt; line-height: 19.425px; font-family: Calibri, Calibri_EmbeddedFont, Calibri_MSFontService, sans-serif; font-variant-ligatures: none !important;&quot; class=&quot;TextRun EmptyTextRun SCXW61687723 BCX0&quot; lang=&quot;EN-GB&quot; data-contrast=&quot;auto&quot;&gt;&lt;/span&gt;&lt;span style=&quot;margin: 0px; padding: 0px; user-select: text; -webkit-user-drag: none; -webkit-tap-highlight-color: transparent; display: inline-block; font-family: &amp;quot;Segoe UI&amp;quot;, &amp;quot;Segoe UI Web&amp;quot;, Arial, Verdana, sans-serif; text-align: left; background-color: rgb(255, 255, 255); font-size: 11pt; line-height: normal;&quot; class=&quot;MathEquationContainer BlobObject DragDrop SCXW61687723 BCX0&quot;&gt;&lt;span style=&quot;margin: 0px; padding: 0px; user-select: text; -webkit-user-drag: none; -webkit-tap-highlight-color: transparent; display: inline-block; background-color: inherit;&quot; class=&quot;MathSpan SCXW61687723 BCX0&quot;&gt;&lt;span style=&quot;margin: 0px; padding: 0px; user-select: text; -webkit-user-drag: none; -webkit-tap-highlight-color: transparent; color: inherit;&quot; class=&quot;MathJax_Preview SCXW61687723 BCX0&quot;&gt;&lt;/span&gt;&lt;div style=&quot;margin: 0px; padding: 0px; user-select: text; -webkit-user-drag: none; -webkit-tap-highlight-color: transparent; text-align: center; width: 17px; position: relative; max-width: none; max-height: none; min-width: 0px; min-height: 0px;&quot; class=&quot;MathJax_Display SCXW61687723 BCX0&quot;&gt;&lt;span style=&quot;margin: 0px; padding: 0px; user-select: text; -webkit-user-drag: none; -webkit-tap-highlight-color: transparent; display: inline-table; line-height: normal; word-spacing: normal; overflow-wrap: normal; float: none; direction: ltr; max-width: none; max-height: none; min-width: 0px; min-height: 0px; border: 0px; position: relative;&quot; role=&quot;presentation&quot; data-mathml=&quot;&lt;math xmlns=&amp;quot;http://www.w3.org/1998/Math/MathML&amp;quot; display=&amp;quot;block&amp;quot;&gt;&lt;msub&gt;&lt;mi&gt;n&lt;/mi&gt;&lt;mi&gt;b&lt;/mi&gt;&lt;/msub&gt;&lt;/math&gt;&quot; tabindex=&quot;0&quot; id=&quot;MathJax-Element-18-Frame&quot; class=&quot;MathJax SCXW61687723 BCX0&quot;&gt;&lt;nobr style=&quot;margin: 0px; padding: 0px; user-select: text; -webkit-user-drag: none; -webkit-tap-highlight-color: transparent; transition: none 0s ease 0s; border: 0px; max-width: none; max-height: none; min-width: 0px; min-height: 0px; vertical-align: 0px; line-height: normal;&quot; class=&quot;SCXW61687723 BCX0&quot; aria-hidden=&quot;true&quot;&gt;&lt;span style=&quot;margin: 0px; padding: 0px; user-select: text; -webkit-user-drag: none; -webkit-tap-highlight-color: transparent; transition: none 0s ease 0s; display: inline; position: static; border: 0px; vertical-align: 0px; line-height: normal; box-sizing: content-box; width: 17px;&quot; id=&quot;MathJax-Span-96&quot; class=&quot;math SCXW61687723 BCX0&quot;&gt;&lt;span style=&quot;margin: 0px; padding: 0px; user-select: text; -webkit-user-drag: none; -webkit-tap-highlight-color: transparent; transition: none 0s ease 0s; display: inline-block; position: relative; border: 0px; vertical-align: 0px; line-height: normal; box-sizing: content-box; width: 17px; height: 0px; font-size: 16.28px;&quot; class=&quot;SCXW61687723 BCX0&quot;&gt;&lt;span style=&quot;margin: 0px; padding: 0px; user-select: text; -webkit-user-drag: none; -webkit-tap-highlight-color: transparent; transition: none 0s ease 0s; display: inline; position: absolute; border: 0px; vertical-align: 0px; line-height: normal; box-sizing: content-box; clip: rect(1.539em, 1000.96em, 2.44em, -999.997em); top: -2.117em; left: 0em; width: 17px;&quot; class=&quot;SCXW61687723 BCX0&quot;&gt;&lt;span style=&quot;margin: 0px; padding: 0px; user-select: text; -webkit-user-drag: none; -webkit-tap-highlight-color: transparent; transition: none 0s ease 0s; display: inline; position: static; border: 0px; vertical-align: 0px; line-height: normal; box-sizing: content-box;&quot; id=&quot;MathJax-Span-97&quot; class=&quot;mrow SCXW61687723 BCX0&quot;&gt;&lt;span style=&quot;margin: 0px; padding: 0px; user-select: text; -webkit-user-drag: none; -webkit-tap-highlight-color: transparent; transition: none 0s ease 0s; display: inline; position: static; border: 0px; vertical-align: 0px; line-height: normal; box-sizing: content-box;&quot; id=&quot;MathJax-Span-98&quot; class=&quot;msub SCXW61687723 BCX0&quot;&gt;&lt;span style=&quot;margin: 0px; padding: 0px; user-select: text; -webkit-user-drag: none; -webkit-tap-highlight-color: transparent; transition: none 0s ease 0s; display: inline-block; position: relative; border: 0px; vertical-align: 0px; line-height: normal; box-sizing: content-box; width: 0.957em; height: 0px;&quot; class=&quot;SCXW61687723 BCX0&quot;&gt;&lt;span style=&quot;margin: 0px; padding: 0px; user-select: text; -webkit-user-drag: none; -webkit-tap-highlight-color: transparent; transition: none 0s ease 0s; display: inline; position: absolute; border: 0px; vertical-align: 0px; line-height: normal; box-sizing: content-box; clip: rect(3.394em, 1000.59em, 4.136em, -999.997em); top: -3.972em; left: 0em;&quot; class=&quot;SCXW61687723 BCX0&quot;&gt;&lt;span style=&quot;margin: 0px; padding: 0px; user-select: text; -webkit-user-drag: none; -webkit-tap-highlight-color: transparent; transition: none 0s ease 0s; display: inline; position: static; border: 0px; vertical-align: 0px; line-height: normal; box-sizing: content-box; font-family: MathJax_Math-italic;&quot; id=&quot;MathJax-Span-99&quot; class=&quot;mi SCXW61687723 BCX0&quot;&gt;n&lt;/span&gt;&lt;span style=&quot;margin: 0px; padding: 0px; user-select: text; -webkit-user-drag: none; -webkit-tap-highlight-color: transparent; transition: none 0s ease 0s; display: inline-block; position: static; border: 0px; vertical-align: 0px; line-height: normal; box-sizing: content-box; width: 0px; height: 3.977em;&quot; class=&quot;SCXW61687723 BCX0&quot;&gt;&lt;/span&gt;&lt;/span&gt;&lt;span style=&quot;margin: 0px; padding: 0px; user-select: text; -webkit-user-drag: none; -webkit-tap-highlight-color: transparent; transition: none 0s ease 0s; display: inline; position: absolute; border: 0px; vertical-align: 0px; line-height: normal; box-sizing: content-box; top: -3.813em; left: 0.586em;&quot; class=&quot;SCXW61687723 BCX0&quot;&gt;&lt;span style=&quot;margin: 0px; padding: 0px; user-select: text; -webkit-user-drag: none; -webkit-tap-highlight-color: transparent; transition: none 0s ease 0s; display: inline; position: static; border: 0px; vertical-align: 0px; line-height: normal; box-sizing: content-box; font-size: 12px; font-family: MathJax_Math-italic;&quot; id=&quot;MathJax-Span-100&quot; class=&quot;mi SCXW61687723 BCX0&quot;&gt;b&lt;/span&gt;&lt;span style=&quot;margin: 0px; padding: 0px; user-select: text; -webkit-user-drag: none; -webkit-tap-highlight-color: transparent; transition: none 0s ease 0s; display: inline-block; position: static; border: 0px; vertical-align: 0px; line-height: normal; box-sizing: content-box; width: 0px; height: 3.977em;&quot; class=&quot;SCXW61687723 BCX0&quot;&gt;&lt;/span&gt;&lt;/span&gt;&lt;/span&gt;&lt;/span&gt;&lt;/span&gt;&lt;span style=&quot;margin: 0px; padding: 0px; user-select: text; -webkit-user-drag: none; -webkit-tap-highlight-color: transparent; transition: none 0s ease 0s; display: inline-block; position: static; border: 0px; vertical-align: 0px; line-height: normal; box-sizing: content-box; width: 0px; height: 2.122em;&quot; class=&quot;SCXW61687723 BCX0&quot;&gt;&lt;/span&gt;&lt;/span&gt;&lt;/span&gt;&lt;span style=&quot;margin: 0px; padding: 0px; user-select: text; -webkit-user-drag: none; -webkit-tap-highlight-color: transparent; transition: none 0s ease 0s; display: inline-block; position: static; border: 0px none; vertical-align: -0.232em; line-height: normal; box-sizing: content-box; overflow: hidden; width: 0px; height: 0.768em;&quot; class=&quot;SCXW61687723 BCX0&quot;&gt;&lt;/span&gt;&lt;/span&gt;&lt;/nobr&gt;&lt;span style=&quot;margin: 0px; padding: 0px; user-select: none; -webkit-user-drag: none; -webkit-tap-highlight-color: transparent; top: 0px; left: 0px; clip: rect(1px, 1px, 1px, 1px); position: static; border: 0px; width: 17px; display: inline; transition: none 0s ease 0s; vertical-align: 0px; line-height: normal; box-sizing: content-box; height: 1px !important; overflow: hidden !important;&quot; role=&quot;presentation&quot; class=&quot;MJX_Assistive_MathML MJX_Assistive_MathML_Block SCXW61687723 BCX0&quot;&gt;&lt;math class=&quot;SCXW61687723 BCX0&quot; display=&quot;block&quot; xmlns=&quot;http://www.w3.org/1998/Math/MathML&quot;&gt;&lt;/math&gt;&lt;/span&gt;&lt;/span&gt;&lt;/div&gt;&lt;/span&gt;&lt;/span&gt;&lt;span style=&quot;margin: 0px; padding: 0px; user-select: text; -webkit-user-drag: none; -webkit-tap-highlight-color: transparent; color: windowtext; text-align: left; background-color: rgb(255, 255, 255); font-size: 11pt; line-height: 19.425px; font-family: Calibri, Calibri_EmbeddedFont, Calibri_MSFontService, sans-serif;&quot; data-ccp-props=&quot;{}&quot; class=&quot;EOP SCXW61687723 BCX0&quot;&gt;&amp;nbsp;&lt;/span&gt;" style="text;html=1;strokeColor=none;fillColor=none;align=center;verticalAlign=middle;whiteSpace=wrap;rounded=0;fontSize=10;" vertex="1" parent="1">
          <mxGeometry x="180" y="1190" width="60" height="30" as="geometry" />
        </mxCell>
      </root>
    </mxGraphModel>
  </diagram>
</mxfile>
